<?xml version="1.0" encoding="UTF-8" standalone="no"?>
<!DOCTYPE svg PUBLIC "-//W3C//DTD SVG 1.1//EN"
 "http://www.w3.org/Graphics/SVG/1.1/DTD/svg11.dtd">
<!-- Generated by graphviz version 2.44.0 (20200408.0750)
 -->
<!-- Title: dependency&#45;cruiser output Pages: 1 -->
<svg width="528pt" height="379pt"
 viewBox="0.00 0.00 528.04 379.00" xmlns="http://www.w3.org/2000/svg" xmlns:xlink="http://www.w3.org/1999/xlink">
<g id="graph0" class="graph" transform="scale(1 1) rotate(0) translate(4 375)">
<title>dependency&#45;cruiser output</title>
<polygon fill="white" stroke="transparent" points="-4,4 -4,-375 524.04,-375 524.04,4 -4,4"/>
<g id="clust1" class="cluster">
<title>cluster_api</title>
<path fill="#ffffff" stroke="black" stroke-width="2" d="M20,-152C20,-152 355.04,-152 355.04,-152 361.04,-152 367.04,-158 367.04,-164 367.04,-164 367.04,-351 367.04,-351 367.04,-357 361.04,-363 355.04,-363 355.04,-363 20,-363 20,-363 14,-363 8,-357 8,-351 8,-351 8,-164 8,-164 8,-158 14,-152 20,-152"/>
<text text-anchor="middle" x="187.52" y="-350.9" font-family="Helvetica,sans-Serif" font-weight="bold" font-size="9.00">api</text>
</g>
<g id="clust2" class="cluster">
<title>cluster_api/controllers</title>
<path fill="#ffffff" stroke="black" stroke-width="2" d="M189.77,-160C189.77,-160 252.28,-160 252.28,-160 258.28,-160 264.28,-166 264.28,-172 264.28,-172 264.28,-232 264.28,-232 264.28,-238 258.28,-244 252.28,-244 252.28,-244 189.77,-244 189.77,-244 183.77,-244 177.77,-238 177.77,-232 177.77,-232 177.77,-172 177.77,-172 177.77,-166 183.77,-160 189.77,-160"/>
<text text-anchor="middle" x="221.02" y="-231.9" font-family="Helvetica,sans-Serif" font-weight="bold" font-size="9.00">controllers</text>
</g>
<g id="clust3" class="cluster">
<title>cluster_api/data&#45;access</title>
<path fill="#ffffff" stroke="black" stroke-width="2" d="M290.79,-178C290.79,-178 345.78,-178 345.78,-178 351.78,-178 357.78,-184 357.78,-190 357.78,-190 357.78,-219 357.78,-219 357.78,-225 351.78,-231 345.78,-231 345.78,-231 290.79,-231 290.79,-231 284.79,-231 278.79,-225 278.79,-219 278.79,-219 278.79,-190 278.79,-190 278.79,-184 284.79,-178 290.79,-178"/>
<text text-anchor="middle" x="318.29" y="-218.9" font-family="Helvetica,sans-Serif" font-weight="bold" font-size="9.00">data&#45;access</text>
</g>
<g id="clust4" class="cluster">
<title>cluster_api/logic</title>
<path fill="#ffffff" stroke="black" stroke-width="2" d="M289.53,-239C289.53,-239 347.04,-239 347.04,-239 353.04,-239 359.04,-245 359.04,-251 359.04,-251 359.04,-280 359.04,-280 359.04,-286 353.04,-292 347.04,-292 347.04,-292 289.53,-292 289.53,-292 283.53,-292 277.53,-286 277.53,-280 277.53,-280 277.53,-251 277.53,-251 277.53,-245 283.53,-239 289.53,-239"/>
<text text-anchor="middle" x="318.29" y="-279.9" font-family="Helvetica,sans-Serif" font-weight="bold" font-size="9.00">logic</text>
</g>
<g id="clust5" class="cluster">
<title>cluster_api/middleware</title>
<path fill="#ffffff" stroke="black" stroke-width="2" d="M184.51,-252C184.51,-252 257.53,-252 257.53,-252 263.53,-252 269.53,-258 269.53,-264 269.53,-264 269.53,-324 269.53,-324 269.53,-330 263.53,-336 257.53,-336 257.53,-336 184.51,-336 184.51,-336 178.51,-336 172.51,-330 172.51,-324 172.51,-324 172.51,-264 172.51,-264 172.51,-258 178.51,-252 184.51,-252"/>
<text text-anchor="middle" x="221.02" y="-323.9" font-family="Helvetica,sans-Serif" font-weight="bold" font-size="9.00">middleware</text>
</g>
<g id="clust6" class="cluster">
<title>cluster_api/routes</title>
<path fill="#ffffff" stroke="black" stroke-width="2" d="M90,-160C90,-160 152.51,-160 152.51,-160 158.51,-160 164.51,-166 164.51,-172 164.51,-172 164.51,-232 164.51,-232 164.51,-238 158.51,-244 152.51,-244 152.51,-244 90,-244 90,-244 84,-244 78,-238 78,-232 78,-232 78,-172 78,-172 78,-166 84,-160 90,-160"/>
<text text-anchor="middle" x="121.26" y="-231.9" font-family="Helvetica,sans-Serif" font-weight="bold" font-size="9.00">routes</text>
</g>
<g id="clust7" class="cluster">
<title>cluster_config</title>
<path fill="#ffffff" stroke="black" stroke-width="2" d="M387.04,-290C387.04,-290 500.04,-290 500.04,-290 506.04,-290 512.04,-296 512.04,-302 512.04,-302 512.04,-331 512.04,-331 512.04,-337 506.04,-343 500.04,-343 500.04,-343 387.04,-343 387.04,-343 381.04,-343 375.04,-337 375.04,-331 375.04,-331 375.04,-302 375.04,-302 375.04,-296 381.04,-290 387.04,-290"/>
<text text-anchor="middle" x="443.54" y="-330.9" font-family="Helvetica,sans-Serif" font-weight="bold" font-size="9.00">config</text>
</g>
<g id="clust8" class="cluster">
<title>cluster_node_modules</title>
<path fill="#ffffff" stroke="black" stroke-width="2" d="M293.29,-8C293.29,-8 344.29,-8 344.29,-8 350.29,-8 356.29,-14 356.29,-20 356.29,-20 356.29,-80 356.29,-80 356.29,-86 350.29,-92 344.29,-92 344.29,-92 293.29,-92 293.29,-92 287.29,-92 281.29,-86 281.29,-80 281.29,-80 281.29,-20 281.29,-20 281.29,-14 287.29,-8 293.29,-8"/>
<text text-anchor="middle" x="318.79" y="-79.9" font-family="Helvetica,sans-Serif" font-weight="bold" font-size="9.00">node_modules</text>
</g>
<!-- api/controllers/data&#45;type&#45;1.js -->
<g id="node1" class="node">
<title>api/controllers/data&#45;type&#45;1.js</title>
<g id="a_node1"><a xlink:href="api/controllers/data-type-1.js" xlink:title="data&#45;type&#45;1.js">
<path fill="#ffffcc" stroke="black" d="M249.83,-217.3C249.83,-217.3 192.21,-217.3 192.21,-217.3 189.11,-217.3 186.01,-214.2 186.01,-211.1 186.01,-211.1 186.01,-204.9 186.01,-204.9 186.01,-201.8 189.11,-198.7 192.21,-198.7 192.21,-198.7 249.83,-198.7 249.83,-198.7 252.93,-198.7 256.03,-201.8 256.03,-204.9 256.03,-204.9 256.03,-211.1 256.03,-211.1 256.03,-214.2 252.93,-217.3 249.83,-217.3"/>
<text text-anchor="middle" x="221.02" y="-205.3" font-family="Helvetica,sans-Serif" font-size="9.00">data&#45;type&#45;1.js</text>
</a>
</g>
</g>
<!-- config/index.js -->
<g id="node2" class="node">
<title>config/index.js</title>
<g id="a_node2"><a xlink:href="config/index.js" xlink:title="index.js">
<path fill="#ffffcc" stroke="black" d="M430.84,-316.3C430.84,-316.3 389.24,-316.3 389.24,-316.3 386.14,-316.3 383.04,-313.2 383.04,-310.1 383.04,-310.1 383.04,-303.9 383.04,-303.9 383.04,-300.8 386.14,-297.7 389.24,-297.7 389.24,-297.7 430.84,-297.7 430.84,-297.7 433.94,-297.7 437.04,-300.8 437.04,-303.9 437.04,-303.9 437.04,-310.1 437.04,-310.1 437.04,-313.2 433.94,-316.3 430.84,-316.3"/>
<text text-anchor="middle" x="410.04" y="-304.3" font-family="Helvetica,sans-Serif" font-size="9.00">index.js</text>
</a>
</g>
</g>
<!-- api/controllers/data&#45;type&#45;1.js&#45;&gt;config/index.js -->
<g id="edge1" class="edge">
<title>api/controllers/data&#45;type&#45;1.js&#45;&gt;config/index.js</title>
<path fill="none" stroke="#000000" stroke-width="2" stroke-opacity="0.200000" d="M238.04,-217.33C248.84,-224.53 262.38,-235.53 269.53,-249 276.67,-262.44 266.16,-306.89 277.53,-317 306.41,-342.68 354.36,-330.16 383.69,-318.64"/>
<polygon fill="#000000" fill-opacity="0.200000" stroke="#000000" stroke-width="2" stroke-opacity="0.200000" points="384.52,-320.57 389.29,-316.36 382.94,-316.68 384.52,-320.57"/>
</g>
<!-- api/data&#45;access/local&#45;json.js -->
<g id="node3" class="node">
<title>api/data&#45;access/local&#45;json.js</title>
<g id="a_node3"><a xlink:href="api/data-access/local-json.js" xlink:title="local&#45;json.js">
<path fill="#ffffcc" stroke="black" d="M343.58,-204.3C343.58,-204.3 292.99,-204.3 292.99,-204.3 289.89,-204.3 286.79,-201.2 286.79,-198.1 286.79,-198.1 286.79,-191.9 286.79,-191.9 286.79,-188.8 289.89,-185.7 292.99,-185.7 292.99,-185.7 343.58,-185.7 343.58,-185.7 346.68,-185.7 349.78,-188.8 349.78,-191.9 349.78,-191.9 349.78,-198.1 349.78,-198.1 349.78,-201.2 346.68,-204.3 343.58,-204.3"/>
<text text-anchor="middle" x="318.29" y="-192.3" font-family="Helvetica,sans-Serif" font-size="9.00">local&#45;json.js</text>
</a>
</g>
</g>
<!-- api/controllers/data&#45;type&#45;1.js&#45;&gt;api/data&#45;access/local&#45;json.js -->
<g id="edge2" class="edge">
<title>api/controllers/data&#45;type&#45;1.js&#45;&gt;api/data&#45;access/local&#45;json.js</title>
<path fill="none" stroke="#000000" stroke-width="2" stroke-opacity="0.200000" d="M256.14,-203.34C264.06,-202.26 272.51,-201.11 280.53,-200.02"/>
<polygon fill="#000000" fill-opacity="0.200000" stroke="#000000" stroke-width="2" stroke-opacity="0.200000" points="280.91,-202.08 286.57,-199.19 280.34,-197.92 280.91,-202.08"/>
</g>
<!-- api/logic/do&#45;a&#45;thing.js -->
<g id="node4" class="node">
<title>api/logic/do&#45;a&#45;thing.js</title>
<g id="a_node4"><a xlink:href="api/logic/do-a-thing.js" xlink:title="do&#45;a&#45;thing.js">
<path fill="#ffffcc" stroke="black" d="M344.59,-265.3C344.59,-265.3 291.98,-265.3 291.98,-265.3 288.88,-265.3 285.78,-262.2 285.78,-259.1 285.78,-259.1 285.78,-252.9 285.78,-252.9 285.78,-249.8 288.88,-246.7 291.98,-246.7 291.98,-246.7 344.59,-246.7 344.59,-246.7 347.69,-246.7 350.79,-249.8 350.79,-252.9 350.79,-252.9 350.79,-259.1 350.79,-259.1 350.79,-262.2 347.69,-265.3 344.59,-265.3"/>
<text text-anchor="middle" x="318.29" y="-253.3" font-family="Helvetica,sans-Serif" font-size="9.00">do&#45;a&#45;thing.js</text>
</a>
</g>
</g>
<!-- api/controllers/data&#45;type&#45;1.js&#45;&gt;api/logic/do&#45;a&#45;thing.js -->
<g id="edge3" class="edge">
<title>api/controllers/data&#45;type&#45;1.js&#45;&gt;api/logic/do&#45;a&#45;thing.js</title>
<path fill="none" stroke="#000000" stroke-width="2" stroke-opacity="0.200000" d="M240.84,-217.48C255.72,-224.98 276.6,-235.5 292.77,-243.65"/>
<polygon fill="#000000" fill-opacity="0.200000" stroke="#000000" stroke-width="2" stroke-opacity="0.200000" points="292.2,-245.71 298.5,-246.54 294.09,-241.96 292.2,-245.71"/>
</g>
<!-- fs -->
<g id="node5" class="node">
<title>fs</title>
<path fill="#ffffcc" stroke="grey" d="M430.84,-172.3C430.84,-172.3 389.24,-172.3 389.24,-172.3 386.14,-172.3 383.04,-169.2 383.04,-166.1 383.04,-166.1 383.04,-159.9 383.04,-159.9 383.04,-156.8 386.14,-153.7 389.24,-153.7 389.24,-153.7 430.84,-153.7 430.84,-153.7 433.94,-153.7 437.04,-156.8 437.04,-159.9 437.04,-159.9 437.04,-166.1 437.04,-166.1 437.04,-169.2 433.94,-172.3 430.84,-172.3"/>
<text text-anchor="middle" x="410.04" y="-160.3" font-family="Helvetica,sans-Serif" font-size="9.00" fill="grey">fs</text>
</g>
<!-- api/controllers/data&#45;type&#45;1.js&#45;&gt;fs -->
<g id="edge4" class="edge">
<title>api/controllers/data&#45;type&#45;1.js&#45;&gt;fs</title>
<path fill="none" stroke="#000000" stroke-dasharray="5,2" stroke-opacity="0.200000" d="M256.07,-200.33C260.95,-198.2 265.63,-195.47 269.53,-192 275.77,-186.44 270.69,-179.79 277.53,-175 306.42,-154.76 348.09,-154.52 376.74,-157.54"/>
<polygon fill="#000000" fill-opacity="0.200000" stroke="#000000" stroke-opacity="0.200000" points="376.8,-159.66 383.01,-158.28 377.29,-155.49 376.8,-159.66"/>
</g>
<!-- path -->
<g id="node6" class="node">
<title>path</title>
<path fill="#ffffcc" stroke="grey" d="M339.08,-144.3C339.08,-144.3 297.49,-144.3 297.49,-144.3 294.39,-144.3 291.29,-141.2 291.29,-138.1 291.29,-138.1 291.29,-131.9 291.29,-131.9 291.29,-128.8 294.39,-125.7 297.49,-125.7 297.49,-125.7 339.08,-125.7 339.08,-125.7 342.18,-125.7 345.29,-128.8 345.29,-131.9 345.29,-131.9 345.29,-138.1 345.29,-138.1 345.29,-141.2 342.18,-144.3 339.08,-144.3"/>
<text text-anchor="middle" x="318.29" y="-132.3" font-family="Helvetica,sans-Serif" font-size="9.00" fill="grey">path</text>
</g>
<!-- api/controllers/data&#45;type&#45;1.js&#45;&gt;path -->
<g id="edge5" class="edge">
<title>api/controllers/data&#45;type&#45;1.js&#45;&gt;path</title>
<path fill="none" stroke="#000000" stroke-dasharray="5,2" stroke-opacity="0.200000" d="M256.36,-201.32C261.33,-199.06 265.96,-196.04 269.53,-192 281.25,-178.75 266.49,-166.83 277.53,-153 279.72,-150.26 282.41,-147.93 285.36,-145.94"/>
<polygon fill="#000000" fill-opacity="0.200000" stroke="#000000" stroke-opacity="0.200000" points="286.76,-147.55 290.88,-142.72 284.64,-143.92 286.76,-147.55"/>
</g>
<!-- node_modules/tv4 -->
<g id="node7" class="node">
<title>node_modules/tv4</title>
<g id="a_node7"><a xlink:href="node_modules/tv4" xlink:title="tv4">
<polygon fill="#c40b0a" fill-opacity="0.101961" stroke="black" points="345.29,-65.3 293.35,-65.3 291.29,-63.23 291.29,-46.7 343.22,-46.7 345.29,-48.77 345.29,-65.3"/>
<polyline fill="none" stroke="black" points="343.22,-63.23 291.29,-63.23 "/>
<polyline fill="none" stroke="black" points="343.22,-63.23 343.22,-46.7 "/>
<polyline fill="none" stroke="black" points="343.22,-63.23 345.29,-65.3 "/>
<text text-anchor="middle" x="318.29" y="-53.3" font-family="Helvetica,sans-Serif" font-size="9.00" fill="#c40b0a">tv4</text>
</a>
</g>
</g>
<!-- api/controllers/data&#45;type&#45;1.js&#45;&gt;node_modules/tv4 -->
<g id="edge6" class="edge">
<title>api/controllers/data&#45;type&#45;1.js&#45;&gt;node_modules/tv4</title>
<path fill="none" stroke="#000000" stroke-opacity="0.200000" d="M256.21,-201.82C261.32,-199.51 266.04,-196.34 269.53,-192 279.63,-179.47 272.27,-135.21 277.53,-120 283.9,-101.61 296.29,-82.99 305.55,-70.61"/>
<polygon fill="#000000" fill-opacity="0.200000" stroke="#000000" stroke-opacity="0.200000" points="307.33,-71.74 309.3,-65.7 303.99,-69.19 307.33,-71.74"/>
</g>
<!-- config/default.js -->
<g id="node16" class="node">
<title>config/default.js</title>
<g id="a_node16"><a xlink:href="config/default.js" xlink:title="default.js">
<path fill="#ffffcc" stroke="black" d="M497.84,-316.3C497.84,-316.3 456.24,-316.3 456.24,-316.3 453.14,-316.3 450.04,-313.2 450.04,-310.1 450.04,-310.1 450.04,-303.9 450.04,-303.9 450.04,-300.8 453.14,-297.7 456.24,-297.7 456.24,-297.7 497.84,-297.7 497.84,-297.7 500.94,-297.7 504.04,-300.8 504.04,-303.9 504.04,-303.9 504.04,-310.1 504.04,-310.1 504.04,-313.2 500.94,-316.3 497.84,-316.3"/>
<text text-anchor="middle" x="477.04" y="-304.3" font-family="Helvetica,sans-Serif" font-size="9.00">default.js</text>
</a>
</g>
</g>
<!-- config/index.js&#45;&gt;config/default.js -->
<g id="edge25" class="edge">
<title>config/index.js&#45;&gt;config/default.js</title>
<path fill="none" stroke="#000000" stroke-width="2" stroke-opacity="0.200000" d="M437.1,-307C439.35,-307 441.65,-307 443.94,-307"/>
<polygon fill="#000000" fill-opacity="0.200000" stroke="#000000" stroke-width="2" stroke-opacity="0.200000" points="443.97,-309.1 449.97,-307 443.97,-304.9 443.97,-309.1"/>
</g>
<!-- api/data&#45;access/local&#45;json.js&#45;&gt;config/index.js -->
<g id="edge12" class="edge">
<title>api/data&#45;access/local&#45;json.js&#45;&gt;config/index.js</title>
<path fill="none" stroke="#000000" stroke-width="2" stroke-opacity="0.200000" d="M332.48,-204.43C342.7,-212.16 356.79,-223.78 367.04,-236 381.82,-253.63 394.59,-277.1 402.05,-292.13"/>
<polygon fill="#000000" fill-opacity="0.200000" stroke="#000000" stroke-width="2" stroke-opacity="0.200000" points="400.22,-293.16 404.74,-297.64 404,-291.33 400.22,-293.16"/>
</g>
<!-- api/data&#45;access/local&#45;json.js&#45;&gt;fs -->
<g id="edge13" class="edge">
<title>api/data&#45;access/local&#45;json.js&#45;&gt;fs</title>
<path fill="none" stroke="#000000" stroke-dasharray="5,2" stroke-opacity="0.200000" d="M345.73,-185.57C355.5,-182.09 366.68,-178.1 376.9,-174.46"/>
<polygon fill="#000000" fill-opacity="0.200000" stroke="#000000" stroke-opacity="0.200000" points="377.84,-176.35 382.78,-172.36 376.43,-172.4 377.84,-176.35"/>
</g>
<!-- util -->
<g id="node9" class="node">
<title>util</title>
<path fill="#ffffcc" stroke="grey" d="M430.84,-204.3C430.84,-204.3 389.24,-204.3 389.24,-204.3 386.14,-204.3 383.04,-201.2 383.04,-198.1 383.04,-198.1 383.04,-191.9 383.04,-191.9 383.04,-188.8 386.14,-185.7 389.24,-185.7 389.24,-185.7 430.84,-185.7 430.84,-185.7 433.94,-185.7 437.04,-188.8 437.04,-191.9 437.04,-191.9 437.04,-198.1 437.04,-198.1 437.04,-201.2 433.94,-204.3 430.84,-204.3"/>
<text text-anchor="middle" x="410.04" y="-192.3" font-family="Helvetica,sans-Serif" font-size="9.00" fill="grey">util</text>
</g>
<!-- api/data&#45;access/local&#45;json.js&#45;&gt;util -->
<g id="edge14" class="edge">
<title>api/data&#45;access/local&#45;json.js&#45;&gt;util</title>
<path fill="none" stroke="#000000" stroke-dasharray="5,2" stroke-opacity="0.200000" d="M349.92,-195C358.59,-195 368.04,-195 376.79,-195"/>
<polygon fill="#000000" fill-opacity="0.200000" stroke="#000000" stroke-opacity="0.200000" points="377.02,-197.1 383.02,-195 377.02,-192.9 377.02,-197.1"/>
</g>
<!-- api/controllers/data&#45;type&#45;2.js -->
<g id="node8" class="node">
<title>api/controllers/data&#45;type&#45;2.js</title>
<g id="a_node8"><a xlink:href="api/controllers/data-type-2.js" xlink:title="data&#45;type&#45;2.js">
<path fill="#ffffcc" stroke="black" d="M249.83,-186.3C249.83,-186.3 192.21,-186.3 192.21,-186.3 189.11,-186.3 186.01,-183.2 186.01,-180.1 186.01,-180.1 186.01,-173.9 186.01,-173.9 186.01,-170.8 189.11,-167.7 192.21,-167.7 192.21,-167.7 249.83,-167.7 249.83,-167.7 252.93,-167.7 256.03,-170.8 256.03,-173.9 256.03,-173.9 256.03,-180.1 256.03,-180.1 256.03,-183.2 252.93,-186.3 249.83,-186.3"/>
<text text-anchor="middle" x="221.02" y="-174.3" font-family="Helvetica,sans-Serif" font-size="9.00">data&#45;type&#45;2.js</text>
</a>
</g>
</g>
<!-- api/controllers/data&#45;type&#45;2.js&#45;&gt;config/index.js -->
<g id="edge7" class="edge">
<title>api/controllers/data&#45;type&#45;2.js&#45;&gt;config/index.js</title>
<path fill="none" stroke="#000000" stroke-width="2" stroke-opacity="0.200000" d="M256.33,-183.09C261.43,-185.41 266.11,-188.61 269.53,-193 283.51,-210.93 261.56,-278.82 277.53,-295 302.87,-320.66 346.73,-319.32 376.77,-314.47"/>
<polygon fill="#000000" fill-opacity="0.200000" stroke="#000000" stroke-width="2" stroke-opacity="0.200000" points="377.41,-316.49 382.96,-313.39 376.69,-312.35 377.41,-316.49"/>
</g>
<!-- api/controllers/data&#45;type&#45;2.js&#45;&gt;api/data&#45;access/local&#45;json.js -->
<g id="edge8" class="edge">
<title>api/controllers/data&#45;type&#45;2.js&#45;&gt;api/data&#45;access/local&#45;json.js</title>
<path fill="none" stroke="#000000" stroke-width="2" stroke-opacity="0.200000" d="M256.14,-183.45C264.06,-184.94 272.51,-186.54 280.53,-188.06"/>
<polygon fill="#000000" fill-opacity="0.200000" stroke="#000000" stroke-width="2" stroke-opacity="0.200000" points="280.28,-190.15 286.57,-189.2 281.06,-186.02 280.28,-190.15"/>
</g>
<!-- api/controllers/data&#45;type&#45;2.js&#45;&gt;fs -->
<g id="edge9" class="edge">
<title>api/controllers/data&#45;type&#45;2.js&#45;&gt;fs</title>
<path fill="none" stroke="#000000" stroke-dasharray="5,2" stroke-opacity="0.200000" d="M242.94,-167.51C252.26,-162.35 262.66,-155.13 269.53,-146 276.81,-136.34 267.81,-127.18 277.53,-120 309.53,-96.37 330.38,-104.56 367.04,-120 380.8,-125.79 392.3,-138.54 399.76,-148.66"/>
<polygon fill="#000000" fill-opacity="0.200000" stroke="#000000" stroke-opacity="0.200000" points="398.12,-149.97 403.29,-153.66 401.55,-147.55 398.12,-149.97"/>
</g>
<!-- api/controllers/data&#45;type&#45;2.js&#45;&gt;path -->
<g id="edge10" class="edge">
<title>api/controllers/data&#45;type&#45;2.js&#45;&gt;path</title>
<path fill="none" stroke="#000000" stroke-dasharray="5,2" stroke-opacity="0.200000" d="M243.16,-167.68C257,-161.58 275.22,-153.55 290.13,-146.97"/>
<polygon fill="#000000" fill-opacity="0.200000" stroke="#000000" stroke-opacity="0.200000" points="291.23,-148.78 295.87,-144.44 289.54,-144.94 291.23,-148.78"/>
</g>
<!-- api/controllers/data&#45;type&#45;2.js&#45;&gt;node_modules/tv4 -->
<g id="edge11" class="edge">
<title>api/controllers/data&#45;type&#45;2.js&#45;&gt;node_modules/tv4</title>
<path fill="none" stroke="#000000" stroke-opacity="0.200000" d="M244,-167.65C253.31,-162.58 263.4,-155.41 269.53,-146 281.57,-127.51 267.62,-116.71 277.53,-97 282.84,-86.44 291.83,-76.82 299.92,-69.56"/>
<polygon fill="#000000" fill-opacity="0.200000" stroke="#000000" stroke-opacity="0.200000" points="301.62,-70.86 304.8,-65.35 298.88,-67.68 301.62,-70.86"/>
</g>
<!-- api/index.js -->
<g id="node10" class="node">
<title>api/index.js</title>
<g id="a_node10"><a xlink:href="api/index.js" xlink:title="index.js">
<path fill="#ffffcc" stroke="black" d="M63.8,-201.3C63.8,-201.3 22.2,-201.3 22.2,-201.3 19.1,-201.3 16,-198.2 16,-195.1 16,-195.1 16,-188.9 16,-188.9 16,-185.8 19.1,-182.7 22.2,-182.7 22.2,-182.7 63.8,-182.7 63.8,-182.7 66.9,-182.7 70,-185.8 70,-188.9 70,-188.9 70,-195.1 70,-195.1 70,-198.2 66.9,-201.3 63.8,-201.3"/>
<text text-anchor="middle" x="43" y="-189.3" font-family="Helvetica,sans-Serif" font-size="9.00">index.js</text>
</a>
</g>
</g>
<!-- api/middleware/authentication.js -->
<g id="node11" class="node">
<title>api/middleware/authentication.js</title>
<g id="a_node11"><a xlink:href="api/middleware/authentication.js" xlink:title="authentication.js">
<path fill="#ffffcc" stroke="black" d="M255.34,-309.3C255.34,-309.3 186.7,-309.3 186.7,-309.3 183.6,-309.3 180.5,-306.2 180.5,-303.1 180.5,-303.1 180.5,-296.9 180.5,-296.9 180.5,-293.8 183.6,-290.7 186.7,-290.7 186.7,-290.7 255.34,-290.7 255.34,-290.7 258.44,-290.7 261.54,-293.8 261.54,-296.9 261.54,-296.9 261.54,-303.1 261.54,-303.1 261.54,-306.2 258.44,-309.3 255.34,-309.3"/>
<text text-anchor="middle" x="221.02" y="-297.3" font-family="Helvetica,sans-Serif" font-size="9.00">authentication.js</text>
</a>
</g>
</g>
<!-- api/index.js&#45;&gt;api/middleware/authentication.js -->
<g id="edge15" class="edge">
<title>api/index.js&#45;&gt;api/middleware/authentication.js</title>
<path fill="none" stroke="#000000" stroke-width="2" stroke-opacity="0.200000" d="M47.61,-201.46C52.68,-213.58 63,-234.49 78,-247 105.66,-270.07 144.35,-283.62 174.35,-291.24"/>
<polygon fill="#000000" fill-opacity="0.200000" stroke="#000000" stroke-width="2" stroke-opacity="0.200000" points="173.91,-293.29 180.24,-292.68 174.91,-289.21 173.91,-293.29"/>
</g>
<!-- api/routes/data&#45;type&#45;1.js -->
<g id="node12" class="node">
<title>api/routes/data&#45;type&#45;1.js</title>
<g id="a_node12"><a xlink:href="api/routes/data-type-1.js" xlink:title="data&#45;type&#45;1.js">
<path fill="#ffffcc" stroke="black" d="M150.07,-217.3C150.07,-217.3 92.44,-217.3 92.44,-217.3 89.34,-217.3 86.24,-214.2 86.24,-211.1 86.24,-211.1 86.24,-204.9 86.24,-204.9 86.24,-201.8 89.34,-198.7 92.44,-198.7 92.44,-198.7 150.07,-198.7 150.07,-198.7 153.17,-198.7 156.27,-201.8 156.27,-204.9 156.27,-204.9 156.27,-211.1 156.27,-211.1 156.27,-214.2 153.17,-217.3 150.07,-217.3"/>
<text text-anchor="middle" x="121.26" y="-205.3" font-family="Helvetica,sans-Serif" font-size="9.00">data&#45;type&#45;1.js</text>
</a>
</g>
</g>
<!-- api/index.js&#45;&gt;api/routes/data&#45;type&#45;1.js -->
<g id="edge16" class="edge">
<title>api/index.js&#45;&gt;api/routes/data&#45;type&#45;1.js</title>
<path fill="none" stroke="#000000" stroke-width="2" stroke-opacity="0.200000" d="M70.24,-197.51C73.42,-198.17 76.72,-198.87 80.04,-199.56"/>
<polygon fill="#000000" fill-opacity="0.200000" stroke="#000000" stroke-width="2" stroke-opacity="0.200000" points="79.72,-201.64 86.02,-200.82 80.58,-197.53 79.72,-201.64"/>
</g>
<!-- api/routes/data&#45;type&#45;2.js -->
<g id="node13" class="node">
<title>api/routes/data&#45;type&#45;2.js</title>
<g id="a_node13"><a xlink:href="api/routes/data-type-2.js" xlink:title="data&#45;type&#45;2.js">
<path fill="#ffffcc" stroke="black" d="M150.07,-186.3C150.07,-186.3 92.44,-186.3 92.44,-186.3 89.34,-186.3 86.24,-183.2 86.24,-180.1 86.24,-180.1 86.24,-173.9 86.24,-173.9 86.24,-170.8 89.34,-167.7 92.44,-167.7 92.44,-167.7 150.07,-167.7 150.07,-167.7 153.17,-167.7 156.27,-170.8 156.27,-173.9 156.27,-173.9 156.27,-180.1 156.27,-180.1 156.27,-183.2 153.17,-186.3 150.07,-186.3"/>
<text text-anchor="middle" x="121.26" y="-174.3" font-family="Helvetica,sans-Serif" font-size="9.00">data&#45;type&#45;2.js</text>
</a>
</g>
</g>
<!-- api/index.js&#45;&gt;api/routes/data&#45;type&#45;2.js -->
<g id="edge17" class="edge">
<title>api/index.js&#45;&gt;api/routes/data&#45;type&#45;2.js</title>
<path fill="none" stroke="#000000" stroke-width="2" stroke-opacity="0.200000" d="M70.24,-186.84C73.42,-186.21 76.72,-185.56 80.04,-184.91"/>
<polygon fill="#000000" fill-opacity="0.200000" stroke="#000000" stroke-width="2" stroke-opacity="0.200000" points="80.54,-186.95 86.02,-183.73 79.73,-182.83 80.54,-186.95"/>
</g>
<!-- node_modules/express -->
<g id="node14" class="node">
<title>node_modules/express</title>
<g id="a_node14"><a xlink:href="node_modules/express" xlink:title="express">
<polygon fill="#c40b0a" fill-opacity="0.101961" stroke="black" points="345.29,-34.3 293.35,-34.3 291.29,-32.23 291.29,-15.7 343.22,-15.7 345.29,-17.77 345.29,-34.3"/>
<polyline fill="none" stroke="black" points="343.22,-32.23 291.29,-32.23 "/>
<polyline fill="none" stroke="black" points="343.22,-32.23 343.22,-15.7 "/>
<polyline fill="none" stroke="black" points="343.22,-32.23 345.29,-34.3 "/>
<text text-anchor="middle" x="318.29" y="-22.3" font-family="Helvetica,sans-Serif" font-size="9.00" fill="#c40b0a">express</text>
</a>
</g>
</g>
<!-- api/index.js&#45;&gt;node_modules/express -->
<g id="edge18" class="edge">
<title>api/index.js&#45;&gt;node_modules/express</title>
<path fill="none" stroke="#000000" stroke-opacity="0.200000" d="M51.29,-182.49C69.3,-159.62 118.4,-101.18 172.51,-70 208.17,-49.45 254.29,-37.22 284.78,-30.81"/>
<polygon fill="#000000" fill-opacity="0.200000" stroke="#000000" stroke-opacity="0.200000" points="285.58,-32.78 291.04,-29.52 284.74,-28.67 285.58,-32.78"/>
</g>
<!-- api/routes/data&#45;type&#45;1.js&#45;&gt;api/controllers/data&#45;type&#45;1.js -->
<g id="edge19" class="edge">
<title>api/routes/data&#45;type&#45;1.js&#45;&gt;api/controllers/data&#45;type&#45;1.js</title>
<path fill="none" stroke="#000000" stroke-width="2" stroke-opacity="0.200000" d="M156.45,-208C163.85,-208 171.74,-208 179.36,-208"/>
<polygon fill="#000000" fill-opacity="0.200000" stroke="#000000" stroke-width="2" stroke-opacity="0.200000" points="179.68,-210.1 185.68,-208 179.68,-205.9 179.68,-210.1"/>
</g>
<!-- api/routes/data&#45;type&#45;1.js&#45;&gt;node_modules/express -->
<g id="edge21" class="edge">
<title>api/routes/data&#45;type&#45;1.js&#45;&gt;node_modules/express</title>
<path fill="none" stroke="#000000" stroke-opacity="0.200000" d="M156.53,-198.61C159.51,-196.78 162.24,-194.6 164.51,-192 174.99,-179.97 162.73,-169.61 172.51,-157 202.25,-118.67 241.83,-146.82 269.53,-107 286.41,-82.74 259.55,-64.44 277.53,-41 279.68,-38.2 282.4,-35.88 285.41,-33.97"/>
<polygon fill="#000000" fill-opacity="0.200000" stroke="#000000" stroke-opacity="0.200000" points="286.76,-35.63 291.07,-30.95 284.78,-31.93 286.76,-35.63"/>
</g>
<!-- api/middleware/authorization.js -->
<g id="node15" class="node">
<title>api/middleware/authorization.js</title>
<g id="a_node15"><a xlink:href="api/middleware/authorization.js" xlink:title="authorization.js">
<path fill="#ffffcc" stroke="black" d="M252.83,-278.3C252.83,-278.3 189.21,-278.3 189.21,-278.3 186.11,-278.3 183.01,-275.2 183.01,-272.1 183.01,-272.1 183.01,-265.9 183.01,-265.9 183.01,-262.8 186.11,-259.7 189.21,-259.7 189.21,-259.7 252.83,-259.7 252.83,-259.7 255.94,-259.7 259.04,-262.8 259.04,-265.9 259.04,-265.9 259.04,-272.1 259.04,-272.1 259.04,-275.2 255.94,-278.3 252.83,-278.3"/>
<text text-anchor="middle" x="221.02" y="-266.3" font-family="Helvetica,sans-Serif" font-size="9.00">authorization.js</text>
</a>
</g>
</g>
<!-- api/routes/data&#45;type&#45;1.js&#45;&gt;api/middleware/authorization.js -->
<g id="edge20" class="edge">
<title>api/routes/data&#45;type&#45;1.js&#45;&gt;api/middleware/authorization.js</title>
<path fill="none" stroke="#000000" stroke-width="2" stroke-opacity="0.200000" d="M156.28,-215.07C159.31,-216.66 162.12,-218.61 164.51,-221 173.06,-229.55 164.56,-237.89 172.51,-247 175.86,-250.84 180.03,-254.05 184.48,-256.73"/>
<polygon fill="#000000" fill-opacity="0.200000" stroke="#000000" stroke-width="2" stroke-opacity="0.200000" points="183.54,-258.61 189.82,-259.63 185.55,-254.92 183.54,-258.61"/>
</g>
<!-- api/routes/data&#45;type&#45;2.js&#45;&gt;api/controllers/data&#45;type&#45;2.js -->
<g id="edge22" class="edge">
<title>api/routes/data&#45;type&#45;2.js&#45;&gt;api/controllers/data&#45;type&#45;2.js</title>
<path fill="none" stroke="#000000" stroke-width="2" stroke-opacity="0.200000" d="M156.45,-177C163.85,-177 171.74,-177 179.36,-177"/>
<polygon fill="#000000" fill-opacity="0.200000" stroke="#000000" stroke-width="2" stroke-opacity="0.200000" points="179.68,-179.1 185.68,-177 179.68,-174.9 179.68,-179.1"/>
</g>
<!-- api/routes/data&#45;type&#45;2.js&#45;&gt;node_modules/express -->
<g id="edge24" class="edge">
<title>api/routes/data&#45;type&#45;2.js&#45;&gt;node_modules/express</title>
<path fill="none" stroke="#000000" stroke-opacity="0.200000" d="M130.15,-167.61C139.54,-156.79 156.04,-138.84 172.51,-126 211.96,-95.26 238.91,-108.54 269.53,-69 277.46,-58.77 268.87,-50.62 277.53,-41 279.83,-38.44 282.6,-36.29 285.59,-34.47"/>
<polygon fill="#000000" fill-opacity="0.200000" stroke="#000000" stroke-opacity="0.200000" points="286.82,-36.2 291.16,-31.56 284.87,-32.48 286.82,-36.2"/>
</g>
<!-- api/routes/data&#45;type&#45;2.js&#45;&gt;api/middleware/authorization.js -->
<g id="edge23" class="edge">
<title>api/routes/data&#45;type&#45;2.js&#45;&gt;api/middleware/authorization.js</title>
<path fill="none" stroke="#000000" stroke-width="2" stroke-opacity="0.200000" d="M156.34,-185.96C159.43,-187.87 162.25,-190.19 164.51,-193 179.73,-211.9 157.98,-227.57 172.51,-247 175.34,-250.79 178.99,-253.94 183,-256.57"/>
<polygon fill="#000000" fill-opacity="0.200000" stroke="#000000" stroke-width="2" stroke-opacity="0.200000" points="181.99,-258.42 188.23,-259.62 184.11,-254.79 181.99,-258.42"/>
</g>
</g>
</svg>
