<?xml version="1.0" encoding="UTF-8" standalone="no"?>
<!DOCTYPE svg PUBLIC "-//W3C//DTD SVG 1.1//EN"
 "http://www.w3.org/Graphics/SVG/1.1/DTD/svg11.dtd">
<!-- Generated by graphviz version 2.44.0 (20200408.0750)
 -->
<!-- Title: dependency&#45;cruiser output Pages: 1 -->
<svg width="502pt" height="315pt"
 viewBox="0.00 0.00 501.52 315.00" xmlns="http://www.w3.org/2000/svg" xmlns:xlink="http://www.w3.org/1999/xlink">
<g id="graph0" class="graph" transform="scale(1 1) rotate(0) translate(4 311)">
<title>dependency&#45;cruiser output</title>
<polygon fill="white" stroke="transparent" points="-4,4 -4,-311 497.52,-311 497.52,4 -4,4"/>
<g id="clust1" class="cluster">
<title>cluster_api</title>
<path fill="#ffffff" stroke="black" stroke-width="2" d="M20,-58C20,-58 320.52,-58 320.52,-58 326.52,-58 332.52,-64 332.52,-70 332.52,-70 332.52,-287 332.52,-287 332.52,-293 326.52,-299 320.52,-299 320.52,-299 20,-299 20,-299 14,-299 8,-293 8,-287 8,-287 8,-70 8,-70 8,-64 14,-58 20,-58"/>
<text text-anchor="middle" x="170.26" y="-286.9" font-family="Helvetica,sans-Serif" font-weight="bold" font-size="9.00">api</text>
</g>
<g id="clust2" class="cluster">
<title>cluster_api/data&#45;type&#45;1</title>
<path fill="#ffffff" stroke="black" stroke-width="2" d="M103.51,-66C103.51,-66 312.52,-66 312.52,-66 318.52,-66 324.52,-72 324.52,-78 324.52,-78 324.52,-107 324.52,-107 324.52,-113 318.52,-119 312.52,-119 312.52,-119 103.51,-119 103.51,-119 97.51,-119 91.51,-113 91.51,-107 91.51,-107 91.51,-78 91.51,-78 91.51,-72 97.51,-66 103.51,-66"/>
<text text-anchor="middle" x="208.01" y="-106.9" font-family="Helvetica,sans-Serif" font-weight="bold" font-size="9.00">data&#45;type&#45;1</text>
</g>
<g id="clust3" class="cluster">
<title>cluster_api/data&#45;type&#45;2</title>
<path fill="#ffffff" stroke="black" stroke-width="2" d="M103.51,-127C103.51,-127 312.52,-127 312.52,-127 318.52,-127 324.52,-133 324.52,-139 324.52,-139 324.52,-168 324.52,-168 324.52,-174 318.52,-180 312.52,-180 312.52,-180 103.51,-180 103.51,-180 97.51,-180 91.51,-174 91.51,-168 91.51,-168 91.51,-139 91.51,-139 91.51,-133 97.51,-127 103.51,-127"/>
<text text-anchor="middle" x="208.01" y="-167.9" font-family="Helvetica,sans-Serif" font-weight="bold" font-size="9.00">data&#45;type&#45;2</text>
</g>
<g id="clust4" class="cluster">
<title>cluster_api/middleware</title>
<path fill="#ffffff" stroke="black" stroke-width="2" d="M90,-188C90,-188 163.02,-188 163.02,-188 169.02,-188 175.02,-194 175.02,-200 175.02,-200 175.02,-260 175.02,-260 175.02,-266 169.02,-272 163.02,-272 163.02,-272 90,-272 90,-272 84,-272 78,-266 78,-260 78,-260 78,-200 78,-200 78,-194 84,-188 90,-188"/>
<text text-anchor="middle" x="126.51" y="-259.9" font-family="Helvetica,sans-Serif" font-weight="bold" font-size="9.00">middleware</text>
</g>
<g id="clust5" class="cluster">
<title>cluster_config</title>
<path fill="#ffffff" stroke="black" stroke-width="2" d="M354.52,-157C354.52,-157 473.52,-157 473.52,-157 479.52,-157 485.52,-163 485.52,-169 485.52,-169 485.52,-198 485.52,-198 485.52,-204 479.52,-210 473.52,-210 473.52,-210 354.52,-210 354.52,-210 348.52,-210 342.52,-204 342.52,-198 342.52,-198 342.52,-169 342.52,-169 342.52,-163 348.52,-157 354.52,-157"/>
<text text-anchor="middle" x="414.02" y="-197.9" font-family="Helvetica,sans-Serif" font-weight="bold" font-size="9.00">config</text>
</g>
<g id="clust6" class="cluster">
<title>cluster_node_modules</title>
<path fill="#ffffff" stroke="black" stroke-width="2" d="M352.52,-8C352.52,-8 403.52,-8 403.52,-8 409.52,-8 415.52,-14 415.52,-20 415.52,-20 415.52,-80 415.52,-80 415.52,-86 409.52,-92 403.52,-92 403.52,-92 352.52,-92 352.52,-92 346.52,-92 340.52,-86 340.52,-80 340.52,-80 340.52,-20 340.52,-20 340.52,-14 346.52,-8 352.52,-8"/>
<text text-anchor="middle" x="378.02" y="-79.9" font-family="Helvetica,sans-Serif" font-weight="bold" font-size="9.00">node_modules</text>
</g>
<!-- api/data&#45;type&#45;1/controllers.js -->
<g id="node1" class="node">
<title>api/data&#45;type&#45;1/controllers.js</title>
<g id="a_node1"><a xlink:href="api/data-type-1/controllers.js" xlink:title="controllers.js">
<path fill="#ffffcc" stroke="black" d="M310.57,-92.3C310.57,-92.3 255.97,-92.3 255.97,-92.3 252.87,-92.3 249.77,-89.2 249.77,-86.1 249.77,-86.1 249.77,-79.9 249.77,-79.9 249.77,-76.8 252.87,-73.7 255.97,-73.7 255.97,-73.7 310.57,-73.7 310.57,-73.7 313.67,-73.7 316.77,-76.8 316.77,-79.9 316.77,-79.9 316.77,-86.1 316.77,-86.1 316.77,-89.2 313.67,-92.3 310.57,-92.3"/>
<text text-anchor="middle" x="283.27" y="-80.3" font-family="Helvetica,sans-Serif" font-size="9.00">controllers.js</text>
</a>
</g>
</g>
<!-- config/index.js -->
<g id="node2" class="node">
<title>config/index.js</title>
<g id="a_node2"><a xlink:href="config/index.js" xlink:title="index.js">
<path fill="#ffffcc" stroke="black" d="M398.32,-183.3C398.32,-183.3 356.72,-183.3 356.72,-183.3 353.62,-183.3 350.52,-180.2 350.52,-177.1 350.52,-177.1 350.52,-170.9 350.52,-170.9 350.52,-167.8 353.62,-164.7 356.72,-164.7 356.72,-164.7 398.32,-164.7 398.32,-164.7 401.42,-164.7 404.52,-167.8 404.52,-170.9 404.52,-170.9 404.52,-177.1 404.52,-177.1 404.52,-180.2 401.42,-183.3 398.32,-183.3"/>
<text text-anchor="middle" x="377.52" y="-171.3" font-family="Helvetica,sans-Serif" font-size="9.00">index.js</text>
</a>
</g>
</g>
<!-- api/data&#45;type&#45;1/controllers.js&#45;&gt;config/index.js -->
<g id="edge1" class="edge">
<title>api/data&#45;type&#45;1/controllers.js&#45;&gt;config/index.js</title>
<path fill="none" stroke="#000000" stroke-width="2" stroke-opacity="0.200000" d="M299.98,-92.59C310.69,-99.92 324.35,-110.96 332.52,-124 340.07,-136.06 331.7,-143.84 340.52,-155 342.34,-157.3 344.52,-159.36 346.89,-161.19"/>
<polygon fill="#000000" fill-opacity="0.200000" stroke="#000000" stroke-width="2" stroke-opacity="0.200000" points="345.83,-163.01 351.98,-164.63 348.19,-159.53 345.83,-163.01"/>
</g>
<!-- fs -->
<g id="node3" class="node">
<title>fs</title>
<path fill="#ffffcc" stroke="grey" d="M398.32,-118.3C398.32,-118.3 356.72,-118.3 356.72,-118.3 353.62,-118.3 350.52,-115.2 350.52,-112.1 350.52,-112.1 350.52,-105.9 350.52,-105.9 350.52,-102.8 353.62,-99.7 356.72,-99.7 356.72,-99.7 398.32,-99.7 398.32,-99.7 401.42,-99.7 404.52,-102.8 404.52,-105.9 404.52,-105.9 404.52,-112.1 404.52,-112.1 404.52,-115.2 401.42,-118.3 398.32,-118.3"/>
<text text-anchor="middle" x="377.52" y="-106.3" font-family="Helvetica,sans-Serif" font-size="9.00" fill="grey">fs</text>
</g>
<!-- api/data&#45;type&#45;1/controllers.js&#45;&gt;fs -->
<g id="edge2" class="edge">
<title>api/data&#45;type&#45;1/controllers.js&#45;&gt;fs</title>
<path fill="none" stroke="#000000" stroke-dasharray="5,2" stroke-opacity="0.200000" d="M316.53,-92.09C325.65,-94.66 335.57,-97.46 344.67,-100.02"/>
<polygon fill="#000000" fill-opacity="0.200000" stroke="#000000" stroke-opacity="0.200000" points="344.17,-102.06 350.51,-101.67 345.31,-98.02 344.17,-102.06"/>
</g>
<!-- path -->
<g id="node4" class="node">
<title>path</title>
<path fill="#ffffcc" stroke="grey" d="M398.32,-149.3C398.32,-149.3 356.72,-149.3 356.72,-149.3 353.62,-149.3 350.52,-146.2 350.52,-143.1 350.52,-143.1 350.52,-136.9 350.52,-136.9 350.52,-133.8 353.62,-130.7 356.72,-130.7 356.72,-130.7 398.32,-130.7 398.32,-130.7 401.42,-130.7 404.52,-133.8 404.52,-136.9 404.52,-136.9 404.52,-143.1 404.52,-143.1 404.52,-146.2 401.42,-149.3 398.32,-149.3"/>
<text text-anchor="middle" x="377.52" y="-137.3" font-family="Helvetica,sans-Serif" font-size="9.00" fill="grey">path</text>
</g>
<!-- api/data&#45;type&#45;1/controllers.js&#45;&gt;path -->
<g id="edge3" class="edge">
<title>api/data&#45;type&#45;1/controllers.js&#45;&gt;path</title>
<path fill="none" stroke="#000000" stroke-dasharray="5,2" stroke-opacity="0.200000" d="M295.84,-92.56C306.88,-101.41 324.2,-114.57 340.52,-124 342.78,-125.31 345.18,-126.58 347.61,-127.81"/>
<polygon fill="#000000" fill-opacity="0.200000" stroke="#000000" stroke-opacity="0.200000" points="346.99,-129.84 353.3,-130.55 348.81,-126.06 346.99,-129.84"/>
</g>
<!-- node_modules/tv4 -->
<g id="node5" class="node">
<title>node_modules/tv4</title>
<g id="a_node5"><a xlink:href="node_modules/tv4" xlink:title="tv4">
<polygon fill="#c40b0a" fill-opacity="0.101961" stroke="black" points="404.52,-65.3 352.59,-65.3 350.52,-63.23 350.52,-46.7 402.45,-46.7 404.52,-48.77 404.52,-65.3"/>
<polyline fill="none" stroke="black" points="402.45,-63.23 350.52,-63.23 "/>
<polyline fill="none" stroke="black" points="402.45,-63.23 402.45,-46.7 "/>
<polyline fill="none" stroke="black" points="402.45,-63.23 404.52,-65.3 "/>
<text text-anchor="middle" x="377.52" y="-53.3" font-family="Helvetica,sans-Serif" font-size="9.00" fill="#c40b0a">tv4</text>
</a>
</g>
</g>
<!-- api/data&#45;type&#45;1/controllers.js&#45;&gt;node_modules/tv4 -->
<g id="edge4" class="edge">
<title>api/data&#45;type&#45;1/controllers.js&#45;&gt;node_modules/tv4</title>
<path fill="none" stroke="#000000" stroke-opacity="0.200000" d="M316.27,-73.63C325.41,-70.96 335.36,-68.05 344.5,-65.37"/>
<polygon fill="#000000" fill-opacity="0.200000" stroke="#000000" stroke-opacity="0.200000" points="345.2,-67.35 350.37,-63.65 344.02,-63.32 345.2,-67.35"/>
</g>
<!-- config/default.js -->
<g id="node15" class="node">
<title>config/default.js</title>
<g id="a_node15"><a xlink:href="config/default.js" xlink:title="default.js">
<path fill="#ffffcc" stroke="black" d="M471.32,-183.3C471.32,-183.3 429.72,-183.3 429.72,-183.3 426.62,-183.3 423.52,-180.2 423.52,-177.1 423.52,-177.1 423.52,-170.9 423.52,-170.9 423.52,-167.8 426.62,-164.7 429.72,-164.7 429.72,-164.7 471.32,-164.7 471.32,-164.7 474.42,-164.7 477.52,-167.8 477.52,-170.9 477.52,-170.9 477.52,-177.1 477.52,-177.1 477.52,-180.2 474.42,-183.3 471.32,-183.3"/>
<text text-anchor="middle" x="450.52" y="-171.3" font-family="Helvetica,sans-Serif" font-size="9.00">default.js</text>
</a>
</g>
</g>
<!-- config/index.js&#45;&gt;config/default.js -->
<g id="edge20" class="edge">
<title>config/index.js&#45;&gt;config/default.js</title>
<path fill="none" stroke="#000000" stroke-width="2" stroke-opacity="0.200000" d="M404.55,-174C408.7,-174 413.04,-174 417.31,-174"/>
<polygon fill="#000000" fill-opacity="0.200000" stroke="#000000" stroke-width="2" stroke-opacity="0.200000" points="417.49,-176.1 423.49,-174 417.49,-171.9 417.49,-176.1"/>
</g>
<!-- api/data&#45;type&#45;1/index.js -->
<g id="node6" class="node">
<title>api/data&#45;type&#45;1/index.js</title>
<g id="a_node6"><a xlink:href="api/data-type-1/index.js" xlink:title="index.js">
<path fill="#ffffcc" stroke="black" d="M147.31,-92.3C147.31,-92.3 105.71,-92.3 105.71,-92.3 102.61,-92.3 99.51,-89.2 99.51,-86.1 99.51,-86.1 99.51,-79.9 99.51,-79.9 99.51,-76.8 102.61,-73.7 105.71,-73.7 105.71,-73.7 147.31,-73.7 147.31,-73.7 150.41,-73.7 153.51,-76.8 153.51,-79.9 153.51,-79.9 153.51,-86.1 153.51,-86.1 153.51,-89.2 150.41,-92.3 147.31,-92.3"/>
<text text-anchor="middle" x="126.51" y="-80.3" font-family="Helvetica,sans-Serif" font-size="9.00">index.js</text>
</a>
</g>
</g>
<!-- api/data&#45;type&#45;1/routes.js -->
<g id="node7" class="node">
<title>api/data&#45;type&#45;1/routes.js</title>
<g id="a_node7"><a xlink:href="api/data-type-1/routes.js" xlink:title="routes.js">
<path fill="#ffffcc" stroke="black" d="M230.82,-92.3C230.82,-92.3 189.22,-92.3 189.22,-92.3 186.12,-92.3 183.02,-89.2 183.02,-86.1 183.02,-86.1 183.02,-79.9 183.02,-79.9 183.02,-76.8 186.12,-73.7 189.22,-73.7 189.22,-73.7 230.82,-73.7 230.82,-73.7 233.92,-73.7 237.02,-76.8 237.02,-79.9 237.02,-79.9 237.02,-86.1 237.02,-86.1 237.02,-89.2 233.92,-92.3 230.82,-92.3"/>
<text text-anchor="middle" x="210.02" y="-80.3" font-family="Helvetica,sans-Serif" font-size="9.00">routes.js</text>
</a>
</g>
</g>
<!-- api/data&#45;type&#45;1/index.js&#45;&gt;api/data&#45;type&#45;1/routes.js -->
<g id="edge5" class="edge">
<title>api/data&#45;type&#45;1/index.js&#45;&gt;api/data&#45;type&#45;1/routes.js</title>
<path fill="none" stroke="#000000" stroke-width="2" stroke-opacity="0.200000" d="M153.75,-83C161.02,-83 169,-83 176.58,-83"/>
<polygon fill="#000000" fill-opacity="0.200000" stroke="#000000" stroke-width="2" stroke-opacity="0.200000" points="176.83,-85.1 182.83,-83 176.83,-80.9 176.83,-85.1"/>
</g>
<!-- api/data&#45;type&#45;1/routes.js&#45;&gt;api/data&#45;type&#45;1/controllers.js -->
<g id="edge6" class="edge">
<title>api/data&#45;type&#45;1/routes.js&#45;&gt;api/data&#45;type&#45;1/controllers.js</title>
<path fill="none" stroke="#000000" stroke-width="2" stroke-opacity="0.200000" d="M237.15,-83C239.21,-83 241.32,-83 243.45,-83"/>
<polygon fill="#000000" fill-opacity="0.200000" stroke="#000000" stroke-width="2" stroke-opacity="0.200000" points="243.84,-85.1 249.84,-83 243.84,-80.9 243.84,-85.1"/>
</g>
<!-- node_modules/express -->
<g id="node8" class="node">
<title>node_modules/express</title>
<g id="a_node8"><a xlink:href="node_modules/express" xlink:title="express">
<polygon fill="#c40b0a" fill-opacity="0.101961" stroke="black" points="404.52,-34.3 352.59,-34.3 350.52,-32.23 350.52,-15.7 402.45,-15.7 404.52,-17.77 404.52,-34.3"/>
<polyline fill="none" stroke="black" points="402.45,-32.23 350.52,-32.23 "/>
<polyline fill="none" stroke="black" points="402.45,-32.23 402.45,-15.7 "/>
<polyline fill="none" stroke="black" points="402.45,-32.23 404.52,-34.3 "/>
<text text-anchor="middle" x="377.52" y="-22.3" font-family="Helvetica,sans-Serif" font-size="9.00" fill="#c40b0a">express</text>
</a>
</g>
</g>
<!-- api/data&#45;type&#45;1/routes.js&#45;&gt;node_modules/express -->
<g id="edge7" class="edge">
<title>api/data&#45;type&#45;1/routes.js&#45;&gt;node_modules/express</title>
<path fill="none" stroke="#000000" stroke-opacity="0.200000" d="M216.89,-73.51C223.58,-63.59 235.5,-48.45 250.02,-41 279.38,-25.94 317.43,-22.99 344.1,-23.16"/>
<polygon fill="#000000" fill-opacity="0.200000" stroke="#000000" stroke-opacity="0.200000" points="344.26,-25.26 350.29,-23.25 344.32,-21.06 344.26,-25.26"/>
</g>
<!-- api/data&#45;type&#45;2/controllers.js -->
<g id="node9" class="node">
<title>api/data&#45;type&#45;2/controllers.js</title>
<g id="a_node9"><a xlink:href="api/data-type-2/controllers.js" xlink:title="controllers.js">
<path fill="#ffffcc" stroke="black" d="M310.57,-153.3C310.57,-153.3 255.97,-153.3 255.97,-153.3 252.87,-153.3 249.77,-150.2 249.77,-147.1 249.77,-147.1 249.77,-140.9 249.77,-140.9 249.77,-137.8 252.87,-134.7 255.97,-134.7 255.97,-134.7 310.57,-134.7 310.57,-134.7 313.67,-134.7 316.77,-137.8 316.77,-140.9 316.77,-140.9 316.77,-147.1 316.77,-147.1 316.77,-150.2 313.67,-153.3 310.57,-153.3"/>
<text text-anchor="middle" x="283.27" y="-141.3" font-family="Helvetica,sans-Serif" font-size="9.00">controllers.js</text>
</a>
</g>
</g>
<!-- api/data&#45;type&#45;2/controllers.js&#45;&gt;config/index.js -->
<g id="edge8" class="edge">
<title>api/data&#45;type&#45;2/controllers.js&#45;&gt;config/index.js</title>
<path fill="none" stroke="#000000" stroke-width="2" stroke-opacity="0.200000" d="M312.95,-153.33C322.94,-156.58 334.22,-160.24 344.47,-163.58"/>
<polygon fill="#000000" fill-opacity="0.200000" stroke="#000000" stroke-width="2" stroke-opacity="0.200000" points="344.01,-165.64 350.36,-165.49 345.31,-161.64 344.01,-165.64"/>
</g>
<!-- api/data&#45;type&#45;2/controllers.js&#45;&gt;fs -->
<g id="edge9" class="edge">
<title>api/data&#45;type&#45;2/controllers.js&#45;&gt;fs</title>
<path fill="none" stroke="#000000" stroke-dasharray="5,2" stroke-opacity="0.200000" d="M308.99,-134.62C320.37,-130.31 333.97,-125.14 345.98,-120.59"/>
<polygon fill="#000000" fill-opacity="0.200000" stroke="#000000" stroke-opacity="0.200000" points="346.86,-122.5 351.73,-118.41 345.37,-118.57 346.86,-122.5"/>
</g>
<!-- api/data&#45;type&#45;2/controllers.js&#45;&gt;path -->
<g id="edge10" class="edge">
<title>api/data&#45;type&#45;2/controllers.js&#45;&gt;path</title>
<path fill="none" stroke="#000000" stroke-dasharray="5,2" stroke-opacity="0.200000" d="M316.53,-142.6C325.57,-142.21 335.38,-141.78 344.41,-141.39"/>
<polygon fill="#000000" fill-opacity="0.200000" stroke="#000000" stroke-opacity="0.200000" points="344.61,-143.49 350.51,-141.13 344.43,-139.29 344.61,-143.49"/>
</g>
<!-- api/data&#45;type&#45;2/controllers.js&#45;&gt;node_modules/tv4 -->
<g id="edge11" class="edge">
<title>api/data&#45;type&#45;2/controllers.js&#45;&gt;node_modules/tv4</title>
<path fill="none" stroke="#000000" stroke-opacity="0.200000" d="M315.27,-134.65C321.69,-131.5 327.89,-127.37 332.52,-122 340.96,-112.19 334.11,-105.24 340.52,-94 345.64,-85.02 353.32,-76.52 360.27,-69.84"/>
<polygon fill="#000000" fill-opacity="0.200000" stroke="#000000" stroke-opacity="0.200000" points="361.95,-71.15 364.93,-65.53 359.1,-68.07 361.95,-71.15"/>
</g>
<!-- api/data&#45;type&#45;2/index.js -->
<g id="node10" class="node">
<title>api/data&#45;type&#45;2/index.js</title>
<g id="a_node10"><a xlink:href="api/data-type-2/index.js" xlink:title="index.js">
<path fill="#ffffcc" stroke="black" d="M147.31,-153.3C147.31,-153.3 105.71,-153.3 105.71,-153.3 102.61,-153.3 99.51,-150.2 99.51,-147.1 99.51,-147.1 99.51,-140.9 99.51,-140.9 99.51,-137.8 102.61,-134.7 105.71,-134.7 105.71,-134.7 147.31,-134.7 147.31,-134.7 150.41,-134.7 153.51,-137.8 153.51,-140.9 153.51,-140.9 153.51,-147.1 153.51,-147.1 153.51,-150.2 150.41,-153.3 147.31,-153.3"/>
<text text-anchor="middle" x="126.51" y="-141.3" font-family="Helvetica,sans-Serif" font-size="9.00">index.js</text>
</a>
</g>
</g>
<!-- api/data&#45;type&#45;2/routes.js -->
<g id="node11" class="node">
<title>api/data&#45;type&#45;2/routes.js</title>
<g id="a_node11"><a xlink:href="api/data-type-2/routes.js" xlink:title="routes.js">
<path fill="#ffffcc" stroke="black" d="M230.82,-153.3C230.82,-153.3 189.22,-153.3 189.22,-153.3 186.12,-153.3 183.02,-150.2 183.02,-147.1 183.02,-147.1 183.02,-140.9 183.02,-140.9 183.02,-137.8 186.12,-134.7 189.22,-134.7 189.22,-134.7 230.82,-134.7 230.82,-134.7 233.92,-134.7 237.02,-137.8 237.02,-140.9 237.02,-140.9 237.02,-147.1 237.02,-147.1 237.02,-150.2 233.92,-153.3 230.82,-153.3"/>
<text text-anchor="middle" x="210.02" y="-141.3" font-family="Helvetica,sans-Serif" font-size="9.00">routes.js</text>
</a>
</g>
</g>
<!-- api/data&#45;type&#45;2/index.js&#45;&gt;api/data&#45;type&#45;2/routes.js -->
<g id="edge12" class="edge">
<title>api/data&#45;type&#45;2/index.js&#45;&gt;api/data&#45;type&#45;2/routes.js</title>
<path fill="none" stroke="#000000" stroke-width="2" stroke-opacity="0.200000" d="M153.75,-144C161.02,-144 169,-144 176.58,-144"/>
<polygon fill="#000000" fill-opacity="0.200000" stroke="#000000" stroke-width="2" stroke-opacity="0.200000" points="176.83,-146.1 182.83,-144 176.83,-141.9 176.83,-146.1"/>
</g>
<!-- api/data&#45;type&#45;2/routes.js&#45;&gt;node_modules/express -->
<g id="edge14" class="edge">
<title>api/data&#45;type&#45;2/routes.js&#45;&gt;node_modules/express</title>
<path fill="none" stroke="#000000" stroke-opacity="0.200000" d="M225.36,-134.66C229.7,-131.17 234.09,-126.86 237.02,-122 250.89,-99.01 231.56,-82.5 250.02,-63 276.19,-35.35 296.16,-51.26 332.52,-40 336.35,-38.81 340.36,-37.52 344.32,-36.21"/>
<polygon fill="#000000" fill-opacity="0.200000" stroke="#000000" stroke-opacity="0.200000" points="345.05,-38.18 350.07,-34.29 343.72,-34.2 345.05,-38.18"/>
</g>
<!-- api/data&#45;type&#45;2/routes.js&#45;&gt;api/data&#45;type&#45;2/controllers.js -->
<g id="edge13" class="edge">
<title>api/data&#45;type&#45;2/routes.js&#45;&gt;api/data&#45;type&#45;2/controllers.js</title>
<path fill="none" stroke="#000000" stroke-width="2" stroke-opacity="0.200000" d="M237.15,-144C239.21,-144 241.32,-144 243.45,-144"/>
<polygon fill="#000000" fill-opacity="0.200000" stroke="#000000" stroke-width="2" stroke-opacity="0.200000" points="243.84,-146.1 249.84,-144 243.84,-141.9 243.84,-146.1"/>
</g>
<!-- api/index.js -->
<g id="node12" class="node">
<title>api/index.js</title>
<g id="a_node12"><a xlink:href="api/index.js" xlink:title="index.js">
<path fill="#ffffcc" stroke="black" d="M63.8,-153.3C63.8,-153.3 22.2,-153.3 22.2,-153.3 19.1,-153.3 16,-150.2 16,-147.1 16,-147.1 16,-140.9 16,-140.9 16,-137.8 19.1,-134.7 22.2,-134.7 22.2,-134.7 63.8,-134.7 63.8,-134.7 66.9,-134.7 70,-137.8 70,-140.9 70,-140.9 70,-147.1 70,-147.1 70,-150.2 66.9,-153.3 63.8,-153.3"/>
<text text-anchor="middle" x="43" y="-141.3" font-family="Helvetica,sans-Serif" font-size="9.00">index.js</text>
</a>
</g>
</g>
<!-- api/index.js&#45;&gt;api/data&#45;type&#45;1/index.js -->
<g id="edge15" class="edge">
<title>api/index.js&#45;&gt;api/data&#45;type&#45;1/index.js</title>
<path fill="none" stroke="#000000" stroke-width="2" stroke-opacity="0.200000" d="M56.74,-134.47C70.49,-124.17 92.51,-107.7 107.91,-96.17"/>
<polygon fill="#000000" fill-opacity="0.200000" stroke="#000000" stroke-width="2" stroke-opacity="0.200000" points="109.32,-97.74 112.86,-92.46 106.8,-94.38 109.32,-97.74"/>
</g>
<!-- api/index.js&#45;&gt;node_modules/express -->
<g id="edge19" class="edge">
<title>api/index.js&#45;&gt;node_modules/express</title>
<path fill="none" stroke="#000000" stroke-opacity="0.200000" d="M45.19,-134.65C47.85,-117.72 55.89,-81.97 78,-63 154.28,2.45 284.51,-9.01 344.52,-18.75"/>
<polygon fill="#000000" fill-opacity="0.200000" stroke="#000000" stroke-opacity="0.200000" points="344.18,-20.82 350.45,-19.74 344.88,-16.68 344.18,-20.82"/>
</g>
<!-- api/index.js&#45;&gt;api/data&#45;type&#45;2/index.js -->
<g id="edge16" class="edge">
<title>api/index.js&#45;&gt;api/data&#45;type&#45;2/index.js</title>
<path fill="none" stroke="#000000" stroke-width="2" stroke-opacity="0.200000" d="M70.24,-144C77.51,-144 85.49,-144 93.07,-144"/>
<polygon fill="#000000" fill-opacity="0.200000" stroke="#000000" stroke-width="2" stroke-opacity="0.200000" points="93.32,-146.1 99.32,-144 93.32,-141.9 93.32,-146.1"/>
</g>
<!-- api/middleware/authentication.js -->
<g id="node13" class="node">
<title>api/middleware/authentication.js</title>
<g id="a_node13"><a xlink:href="api/middleware/authentication.js" xlink:title="authentication.js">
<path fill="#ffffcc" stroke="black" d="M160.83,-214.3C160.83,-214.3 92.19,-214.3 92.19,-214.3 89.09,-214.3 85.99,-211.2 85.99,-208.1 85.99,-208.1 85.99,-201.9 85.99,-201.9 85.99,-198.8 89.09,-195.7 92.19,-195.7 92.19,-195.7 160.83,-195.7 160.83,-195.7 163.93,-195.7 167.03,-198.8 167.03,-201.9 167.03,-201.9 167.03,-208.1 167.03,-208.1 167.03,-211.2 163.93,-214.3 160.83,-214.3"/>
<text text-anchor="middle" x="126.51" y="-202.3" font-family="Helvetica,sans-Serif" font-size="9.00">authentication.js</text>
</a>
</g>
</g>
<!-- api/index.js&#45;&gt;api/middleware/authentication.js -->
<g id="edge17" class="edge">
<title>api/index.js&#45;&gt;api/middleware/authentication.js</title>
<path fill="none" stroke="#000000" stroke-width="2" stroke-opacity="0.200000" d="M50.38,-153.35C56.62,-161.95 66.79,-174.59 78,-183 83.02,-186.76 88.78,-190.1 94.52,-192.96"/>
<polygon fill="#000000" fill-opacity="0.200000" stroke="#000000" stroke-width="2" stroke-opacity="0.200000" points="93.91,-194.99 100.23,-195.66 95.71,-191.2 93.91,-194.99"/>
</g>
<!-- api/middleware/authorization.js -->
<g id="node14" class="node">
<title>api/middleware/authorization.js</title>
<g id="a_node14"><a xlink:href="api/middleware/authorization.js" xlink:title="authorization.js">
<path fill="#ffffcc" stroke="black" d="M158.32,-245.3C158.32,-245.3 94.7,-245.3 94.7,-245.3 91.6,-245.3 88.5,-242.2 88.5,-239.1 88.5,-239.1 88.5,-232.9 88.5,-232.9 88.5,-229.8 91.6,-226.7 94.7,-226.7 94.7,-226.7 158.32,-226.7 158.32,-226.7 161.42,-226.7 164.52,-229.8 164.52,-232.9 164.52,-232.9 164.52,-239.1 164.52,-239.1 164.52,-242.2 161.42,-245.3 158.32,-245.3"/>
<text text-anchor="middle" x="126.51" y="-233.3" font-family="Helvetica,sans-Serif" font-size="9.00">authorization.js</text>
</a>
</g>
</g>
<!-- api/index.js&#45;&gt;api/middleware/authorization.js -->
<g id="edge18" class="edge">
<title>api/index.js&#45;&gt;api/middleware/authorization.js</title>
<path fill="none" stroke="#000000" stroke-width="2" stroke-opacity="0.200000" d="M45.66,-153.37C48.98,-169.31 57.89,-201.73 78,-220 79.48,-221.35 81.08,-222.58 82.76,-223.71"/>
<polygon fill="#000000" fill-opacity="0.200000" stroke="#000000" stroke-width="2" stroke-opacity="0.200000" points="81.79,-225.58 88.03,-226.8 83.92,-221.95 81.79,-225.58"/>
</g>
</g>
</svg>
