<?xml version="1.0" encoding="UTF-8" standalone="no"?>
<!DOCTYPE svg PUBLIC "-//W3C//DTD SVG 1.1//EN"
 "http://www.w3.org/Graphics/SVG/1.1/DTD/svg11.dtd">
<!-- Generated by graphviz version 2.44.0 (20200408.0750)
 -->
<!-- Title: dependency&#45;cruiser output Pages: 1 -->
<svg width="204pt" height="208pt"
 viewBox="0.00 0.00 204.00 208.00" xmlns="http://www.w3.org/2000/svg" xmlns:xlink="http://www.w3.org/1999/xlink">
<g id="graph0" class="graph" transform="scale(1 1) rotate(0) translate(4 204)">
<title>dependency&#45;cruiser output</title>
<polygon fill="white" stroke="transparent" points="-4,4 -4,-204 200,-204 200,4 -4,4"/>
<g id="clust1" class="cluster">
<title>cluster_client</title>
<path fill="#ffffff" stroke="black" stroke-width="2" d="M20,-8C20,-8 176,-8 176,-8 182,-8 188,-14 188,-20 188,-20 188,-180 188,-180 188,-186 182,-192 176,-192 176,-192 20,-192 20,-192 14,-192 8,-186 8,-180 8,-180 8,-20 8,-20 8,-14 14,-8 20,-8"/>
<text text-anchor="middle" x="98" y="-179.9" font-family="Helvetica,sans-Serif" font-weight="bold" font-size="9.00">client</text>
</g>
<g id="clust2" class="cluster">
<title>cluster_client/src</title>
<path fill="#ffffff" stroke="black" stroke-width="2" d="M28,-16C28,-16 168,-16 168,-16 174,-16 180,-22 180,-28 180,-28 180,-153 180,-153 180,-159 174,-165 168,-165 168,-165 28,-165 28,-165 22,-165 16,-159 16,-153 16,-153 16,-28 16,-28 16,-22 22,-16 28,-16"/>
<text text-anchor="middle" x="98" y="-152.9" font-family="Helvetica,sans-Serif" font-weight="bold" font-size="9.00">src</text>
</g>
<g id="clust3" class="cluster">
<title>cluster_client/src/api&#45;calls</title>
<path fill="#ffffff" stroke="black" stroke-width="2" d="M114,-24C114,-24 160,-24 160,-24 166,-24 172,-30 172,-36 172,-36 172,-65 172,-65 172,-71 166,-77 160,-77 160,-77 114,-77 114,-77 108,-77 102,-71 102,-65 102,-65 102,-36 102,-36 102,-30 108,-24 114,-24"/>
<text text-anchor="middle" x="137" y="-64.9" font-family="Helvetica,sans-Serif" font-weight="bold" font-size="9.00">api&#45;calls</text>
</g>
<g id="clust4" class="cluster">
<title>cluster_client/src/components</title>
<path fill="#ffffff" stroke="black" stroke-width="2" d="M114,-85C114,-85 160,-85 160,-85 166,-85 172,-91 172,-97 172,-97 172,-126 172,-126 172,-132 166,-138 160,-138 160,-138 114,-138 114,-138 108,-138 102,-132 102,-126 102,-126 102,-97 102,-97 102,-91 108,-85 114,-85"/>
<text text-anchor="middle" x="137" y="-125.9" font-family="Helvetica,sans-Serif" font-weight="bold" font-size="9.00">components</text>
</g>
<g id="clust5" class="cluster">
<title>cluster_client/src/init</title>
<path fill="#ffffff" stroke="black" stroke-width="2" d="M36,-54C36,-54 82,-54 82,-54 88,-54 94,-60 94,-66 94,-66 94,-95 94,-95 94,-101 88,-107 82,-107 82,-107 36,-107 36,-107 30,-107 24,-101 24,-95 24,-95 24,-66 24,-66 24,-60 30,-54 36,-54"/>
<text text-anchor="middle" x="59" y="-94.9" font-family="Helvetica,sans-Serif" font-weight="bold" font-size="9.00">init</text>
</g>
<!-- client/src/api&#45;calls/hello.js -->
<g id="node1" class="node">
<title>client/src/api&#45;calls/hello.js</title>
<g id="a_node1"><a xlink:href="client/src/api-calls/hello.js" xlink:title="hello.js">
<path fill="#ffffcc" stroke="black" d="M157.8,-50.3C157.8,-50.3 116.2,-50.3 116.2,-50.3 113.1,-50.3 110,-47.2 110,-44.1 110,-44.1 110,-37.9 110,-37.9 110,-34.8 113.1,-31.7 116.2,-31.7 116.2,-31.7 157.8,-31.7 157.8,-31.7 160.9,-31.7 164,-34.8 164,-37.9 164,-37.9 164,-44.1 164,-44.1 164,-47.2 160.9,-50.3 157.8,-50.3"/>
<text text-anchor="middle" x="137" y="-38.3" font-family="Helvetica,sans-Serif" font-size="9.00">hello.js</text>
</a>
</g>
</g>
<!-- client/src/components/header.js -->
<g id="node2" class="node">
<title>client/src/components/header.js</title>
<g id="a_node2"><a xlink:href="client/src/components/header.js" xlink:title="header.js">
<path fill="#ffffcc" stroke="black" d="M157.8,-111.3C157.8,-111.3 116.2,-111.3 116.2,-111.3 113.1,-111.3 110,-108.2 110,-105.1 110,-105.1 110,-98.9 110,-98.9 110,-95.8 113.1,-92.7 116.2,-92.7 116.2,-92.7 157.8,-92.7 157.8,-92.7 160.9,-92.7 164,-95.8 164,-98.9 164,-98.9 164,-105.1 164,-105.1 164,-108.2 160.9,-111.3 157.8,-111.3"/>
<text text-anchor="middle" x="137" y="-99.3" font-family="Helvetica,sans-Serif" font-size="9.00">header.js</text>
</a>
</g>
</g>
<!-- client/src/init/index.js -->
<g id="node3" class="node">
<title>client/src/init/index.js</title>
<g id="a_node3"><a xlink:href="client/src/init/index.js" xlink:title="index.js">
<path fill="#ffffcc" stroke="black" d="M79.8,-80.3C79.8,-80.3 38.2,-80.3 38.2,-80.3 35.1,-80.3 32,-77.2 32,-74.1 32,-74.1 32,-67.9 32,-67.9 32,-64.8 35.1,-61.7 38.2,-61.7 38.2,-61.7 79.8,-61.7 79.8,-61.7 82.9,-61.7 86,-64.8 86,-67.9 86,-67.9 86,-74.1 86,-74.1 86,-77.2 82.9,-80.3 79.8,-80.3"/>
<text text-anchor="middle" x="59" y="-68.3" font-family="Helvetica,sans-Serif" font-size="9.00">index.js</text>
</a>
</g>
</g>
<!-- client/src/init/index.js&#45;&gt;client/src/api&#45;calls/hello.js -->
<g id="edge1" class="edge">
<title>client/src/init/index.js&#45;&gt;client/src/api&#45;calls/hello.js</title>
<path fill="none" stroke="#000000" stroke-width="2" stroke-opacity="0.200000" d="M83.63,-61.67C90.92,-58.79 99.04,-55.59 106.67,-52.58"/>
<polygon fill="#000000" fill-opacity="0.200000" stroke="#000000" stroke-width="2" stroke-opacity="0.200000" points="107.57,-54.48 112.38,-50.32 106.03,-50.57 107.57,-54.48"/>
</g>
<!-- client/src/init/index.js&#45;&gt;client/src/components/header.js -->
<g id="edge2" class="edge">
<title>client/src/init/index.js&#45;&gt;client/src/components/header.js</title>
<path fill="none" stroke="#000000" stroke-width="2" stroke-opacity="0.200000" d="M83.22,-80.47C90.8,-83.56 99.31,-87.04 107.25,-90.27"/>
<polygon fill="#000000" fill-opacity="0.200000" stroke="#000000" stroke-width="2" stroke-opacity="0.200000" points="106.84,-92.37 113.19,-92.7 108.43,-88.48 106.84,-92.37"/>
</g>
</g>
</svg>
