<?xml version="1.0" encoding="UTF-8" standalone="no"?>
<!DOCTYPE svg PUBLIC "-//W3C//DTD SVG 1.1//EN"
 "http://www.w3.org/Graphics/SVG/1.1/DTD/svg11.dtd">
<!-- Generated by graphviz version 2.44.0 (20200408.0750)
 -->
<!-- Title: dependency&#45;cruiser output Pages: 1 -->
<svg width="504pt" height="614pt"
 viewBox="0.00 0.00 504.02 614.00" xmlns="http://www.w3.org/2000/svg" xmlns:xlink="http://www.w3.org/1999/xlink">
<g id="graph0" class="graph" transform="scale(1 1) rotate(0) translate(4 610)">
<title>dependency&#45;cruiser output</title>
<polygon fill="white" stroke="transparent" points="-4,4 -4,-610 500.02,-610 500.02,4 -4,4"/>
<g id="clust1" class="cluster">
<title>cluster_client</title>
<path fill="#ffffff" stroke="black" stroke-width="2" d="M20,-8C20,-8 476.02,-8 476.02,-8 482.02,-8 488.02,-14 488.02,-20 488.02,-20 488.02,-586 488.02,-586 488.02,-592 482.02,-598 476.02,-598 476.02,-598 20,-598 20,-598 14,-598 8,-592 8,-586 8,-586 8,-20 8,-20 8,-14 14,-8 20,-8"/>
<text text-anchor="middle" x="248.01" y="-585.9" font-family="Helvetica,sans-Serif" font-weight="bold" font-size="9.00">client</text>
</g>
<g id="clust2" class="cluster">
<title>cluster_client/data</title>
<path fill="#ffffff" stroke="black" stroke-width="2" d="M114,-483C114,-483 160,-483 160,-483 166,-483 172,-489 172,-495 172,-495 172,-524 172,-524 172,-530 166,-536 160,-536 160,-536 114,-536 114,-536 108,-536 102,-530 102,-524 102,-524 102,-495 102,-495 102,-489 108,-483 114,-483"/>
<text text-anchor="middle" x="137" y="-523.9" font-family="Helvetica,sans-Serif" font-weight="bold" font-size="9.00">data</text>
</g>
<g id="clust3" class="cluster">
<title>cluster_client/lib</title>
<path fill="#ffffff" stroke="black" stroke-width="2" d="M201,-483C201,-483 263,-483 263,-483 269,-483 275,-489 275,-495 275,-495 275,-559 275,-559 275,-565 269,-571 263,-571 263,-571 201,-571 201,-571 195,-571 189,-565 189,-559 189,-559 189,-495 189,-495 189,-489 195,-483 201,-483"/>
<text text-anchor="middle" x="232" y="-558.9" font-family="Helvetica,sans-Serif" font-weight="bold" font-size="9.00">lib</text>
</g>
<g id="clust4" class="cluster">
<title>cluster_client/lib/navigo</title>
<path fill="#ffffff" stroke="black" stroke-width="2" d="M209,-491C209,-491 255,-491 255,-491 261,-491 267,-497 267,-503 267,-503 267,-532 267,-532 267,-538 261,-544 255,-544 255,-544 209,-544 209,-544 203,-544 197,-538 197,-532 197,-532 197,-503 197,-503 197,-497 203,-491 209,-491"/>
<text text-anchor="middle" x="232" y="-531.9" font-family="Helvetica,sans-Serif" font-weight="bold" font-size="9.00">navigo</text>
</g>
<g id="clust5" class="cluster">
<title>cluster_client/src</title>
<path fill="#ffffff" stroke="black" stroke-width="2" d="M28,-16C28,-16 468.02,-16 468.02,-16 474.02,-16 480.02,-22 480.02,-28 480.02,-28 480.02,-463 480.02,-463 480.02,-469 474.02,-475 468.02,-475 468.02,-475 28,-475 28,-475 22,-475 16,-469 16,-463 16,-463 16,-28 16,-28 16,-22 22,-16 28,-16"/>
<text text-anchor="middle" x="248.01" y="-462.9" font-family="Helvetica,sans-Serif" font-weight="bold" font-size="9.00">src</text>
</g>
<g id="clust6" class="cluster">
<title>cluster_client/src/api&#45;calls</title>
<path fill="#ffffff" stroke="black" stroke-width="2" d="M36,-395C36,-395 82,-395 82,-395 88,-395 94,-401 94,-407 94,-407 94,-436 94,-436 94,-442 88,-448 82,-448 82,-448 36,-448 36,-448 30,-448 24,-442 24,-436 24,-436 24,-407 24,-407 24,-401 30,-395 36,-395"/>
<text text-anchor="middle" x="59" y="-435.9" font-family="Helvetica,sans-Serif" font-weight="bold" font-size="9.00">api&#45;calls</text>
</g>
<g id="clust7" class="cluster">
<title>cluster_client/src/components</title>
<path fill="#ffffff" stroke="black" stroke-width="2" d="M192,-24C192,-24 381.02,-24 381.02,-24 387.02,-24 393.02,-30 393.02,-36 393.02,-36 393.02,-375 393.02,-375 393.02,-381 387.02,-387 381.02,-387 381.02,-387 192,-387 192,-387 186,-387 180,-381 180,-375 180,-375 180,-36 180,-36 180,-30 186,-24 192,-24"/>
<text text-anchor="middle" x="286.51" y="-374.9" font-family="Helvetica,sans-Serif" font-weight="bold" font-size="9.00">components</text>
</g>
<g id="clust8" class="cluster">
<title>cluster_client/src/components/layout</title>
<path fill="#ffffff" stroke="black" stroke-width="2" d="M209,-276C209,-276 360.01,-276 360.01,-276 366.01,-276 372.01,-282 372.01,-288 372.01,-288 372.01,-348 372.01,-348 372.01,-354 366.01,-360 360.01,-360 360.01,-360 209,-360 209,-360 203,-360 197,-354 197,-348 197,-348 197,-288 197,-288 197,-282 203,-276 209,-276"/>
<text text-anchor="middle" x="284.51" y="-347.9" font-family="Helvetica,sans-Serif" font-weight="bold" font-size="9.00">layout</text>
</g>
<g id="clust9" class="cluster">
<title>cluster_client/src/components/pages</title>
<path fill="#ffffff" stroke="black" stroke-width="2" d="M200,-32C200,-32 264,-32 264,-32 270,-32 276,-38 276,-44 276,-44 276,-256 276,-256 276,-262 270,-268 264,-268 264,-268 200,-268 200,-268 194,-268 188,-262 188,-256 188,-256 188,-44 188,-44 188,-38 194,-32 200,-32"/>
<text text-anchor="middle" x="232" y="-255.9" font-family="Helvetica,sans-Serif" font-weight="bold" font-size="9.00">pages</text>
</g>
<g id="clust10" class="cluster">
<title>cluster_client/src/components/pages/home</title>
<path fill="#ffffff" stroke="black" stroke-width="2" d="M209,-101C209,-101 255,-101 255,-101 261,-101 267,-107 267,-113 267,-113 267,-142 267,-142 267,-148 261,-154 255,-154 255,-154 209,-154 209,-154 203,-154 197,-148 197,-142 197,-142 197,-113 197,-113 197,-107 203,-101 209,-101"/>
<text text-anchor="middle" x="232" y="-141.9" font-family="Helvetica,sans-Serif" font-weight="bold" font-size="9.00">home</text>
</g>
<g id="clust11" class="cluster">
<title>cluster_client/src/components/pages/questions</title>
<path fill="#ffffff" stroke="black" stroke-width="2" d="M209,-40C209,-40 255,-40 255,-40 261,-40 267,-46 267,-52 267,-52 267,-81 267,-81 267,-87 261,-93 255,-93 255,-93 209,-93 209,-93 203,-93 197,-87 197,-81 197,-81 197,-52 197,-52 197,-46 203,-40 209,-40"/>
<text text-anchor="middle" x="232" y="-80.9" font-family="Helvetica,sans-Serif" font-weight="bold" font-size="9.00">questions</text>
</g>
<g id="clust12" class="cluster">
<title>cluster_client/src/components/pages/quiz</title>
<path fill="#ffffff" stroke="black" stroke-width="2" d="M209,-162C209,-162 255,-162 255,-162 261,-162 267,-168 267,-174 267,-174 267,-203 267,-203 267,-209 261,-215 255,-215 255,-215 209,-215 209,-215 203,-215 197,-209 197,-203 197,-203 197,-174 197,-174 197,-168 203,-162 209,-162"/>
<text text-anchor="middle" x="232" y="-202.9" font-family="Helvetica,sans-Serif" font-weight="bold" font-size="9.00">quiz</text>
</g>
<g id="clust13" class="cluster">
<title>cluster_client/src/components/shared</title>
<path fill="#ffffff" stroke="black" stroke-width="2" d="M301.01,-188C301.01,-188 373.02,-188 373.02,-188 379.02,-188 385.02,-194 385.02,-200 385.02,-200 385.02,-229 385.02,-229 385.02,-235 379.02,-241 373.02,-241 373.02,-241 301.01,-241 301.01,-241 295.01,-241 289.01,-235 289.01,-229 289.01,-229 289.01,-200 289.01,-200 289.01,-194 295.01,-188 301.01,-188"/>
<text text-anchor="middle" x="337.01" y="-228.9" font-family="Helvetica,sans-Serif" font-weight="bold" font-size="9.00">shared</text>
</g>
<g id="clust14" class="cluster">
<title>cluster_client/src/handlers</title>
<path fill="#ffffff" stroke="black" stroke-width="2" d="M296,-395C296,-395 378.02,-395 378.02,-395 384.02,-395 390.02,-401 390.02,-407 390.02,-407 390.02,-436 390.02,-436 390.02,-442 384.02,-448 378.02,-448 378.02,-448 296,-448 296,-448 290,-448 284,-442 284,-436 284,-436 284,-407 284,-407 284,-401 290,-395 296,-395"/>
<text text-anchor="middle" x="337.01" y="-435.9" font-family="Helvetica,sans-Serif" font-weight="bold" font-size="9.00">handlers</text>
</g>
<g id="clust15" class="cluster">
<title>cluster_client/src/init</title>
<path fill="#ffffff" stroke="black" stroke-width="2" d="M36,-303C36,-303 160,-303 160,-303 166,-303 172,-309 172,-315 172,-315 172,-375 172,-375 172,-381 166,-387 160,-387 160,-387 36,-387 36,-387 30,-387 24,-381 24,-375 24,-375 24,-315 24,-315 24,-309 30,-303 36,-303"/>
<text text-anchor="middle" x="98" y="-374.9" font-family="Helvetica,sans-Serif" font-weight="bold" font-size="9.00">init</text>
</g>
<g id="clust16" class="cluster">
<title>cluster_client/src/logic</title>
<path fill="#ffffff" stroke="black" stroke-width="2" d="M413.02,-304C413.02,-304 460.02,-304 460.02,-304 466.02,-304 472.02,-310 472.02,-316 472.02,-316 472.02,-345 472.02,-345 472.02,-351 466.02,-357 460.02,-357 460.02,-357 413.02,-357 413.02,-357 407.02,-357 401.02,-351 401.02,-345 401.02,-345 401.02,-316 401.02,-316 401.02,-310 407.02,-304 413.02,-304"/>
<text text-anchor="middle" x="436.52" y="-344.9" font-family="Helvetica,sans-Serif" font-weight="bold" font-size="9.00">logic</text>
</g>
<!-- client/data/state.js -->
<g id="node1" class="node">
<title>client/data/state.js</title>
<g id="a_node1"><a xlink:href="client/data/state.js" xlink:title="state.js">
<path fill="#ffffcc" stroke="black" d="M157.8,-509.3C157.8,-509.3 116.2,-509.3 116.2,-509.3 113.1,-509.3 110,-506.2 110,-503.1 110,-503.1 110,-496.9 110,-496.9 110,-493.8 113.1,-490.7 116.2,-490.7 116.2,-490.7 157.8,-490.7 157.8,-490.7 160.9,-490.7 164,-493.8 164,-496.9 164,-496.9 164,-503.1 164,-503.1 164,-506.2 160.9,-509.3 157.8,-509.3"/>
<text text-anchor="middle" x="137" y="-497.3" font-family="Helvetica,sans-Serif" font-size="9.00">state.js</text>
</a>
</g>
</g>
<!-- client/lib/navigo/index.js -->
<g id="node2" class="node">
<title>client/lib/navigo/index.js</title>
<g id="a_node2"><a xlink:href="client/lib/navigo/index.js" xlink:title="index.js">
<polygon fill="#ffffcc" stroke="black" points="259,-517.3 257.45,-519.37 246.6,-519.37 245.05,-517.3 205,-517.3 205,-498.7 259,-498.7 259,-517.3"/>
<text text-anchor="middle" x="232" y="-505.3" font-family="Helvetica,sans-Serif" font-size="9.00">index.js</text>
</a>
</g>
</g>
<!-- client/src/api&#45;calls/hello.js -->
<g id="node3" class="node">
<title>client/src/api&#45;calls/hello.js</title>
<g id="a_node3"><a xlink:href="client/src/api-calls/hello.js" xlink:title="hello.js">
<path fill="#ffffcc" stroke="black" d="M79.8,-421.3C79.8,-421.3 38.2,-421.3 38.2,-421.3 35.1,-421.3 32,-418.2 32,-415.1 32,-415.1 32,-408.9 32,-408.9 32,-405.8 35.1,-402.7 38.2,-402.7 38.2,-402.7 79.8,-402.7 79.8,-402.7 82.9,-402.7 86,-405.8 86,-408.9 86,-408.9 86,-415.1 86,-415.1 86,-418.2 82.9,-421.3 79.8,-421.3"/>
<text text-anchor="middle" x="59" y="-409.3" font-family="Helvetica,sans-Serif" font-size="9.00">hello.js</text>
</a>
</g>
</g>
<!-- client/src/config.js -->
<g id="node4" class="node">
<title>client/src/config.js</title>
<g id="a_node4"><a xlink:href="client/src/config.js" xlink:title="config.js">
<path fill="#ffffcc" stroke="black" d="M157.8,-427.3C157.8,-427.3 116.2,-427.3 116.2,-427.3 113.1,-427.3 110,-424.2 110,-421.1 110,-421.1 110,-414.9 110,-414.9 110,-411.8 113.1,-408.7 116.2,-408.7 116.2,-408.7 157.8,-408.7 157.8,-408.7 160.9,-408.7 164,-411.8 164,-414.9 164,-414.9 164,-421.1 164,-421.1 164,-424.2 160.9,-427.3 157.8,-427.3"/>
<text text-anchor="middle" x="137" y="-415.3" font-family="Helvetica,sans-Serif" font-size="9.00">config.js</text>
</a>
</g>
</g>
<!-- client/src/api&#45;calls/hello.js&#45;&gt;client/src/config.js -->
<g id="edge1" class="edge">
<title>client/src/api&#45;calls/hello.js&#45;&gt;client/src/config.js</title>
<path fill="none" stroke="#000000" stroke-width="2" stroke-opacity="0.200000" d="M86.15,-414.06C91.77,-414.51 97.76,-414.98 103.58,-415.44"/>
<polygon fill="#000000" fill-opacity="0.200000" stroke="#000000" stroke-width="2" stroke-opacity="0.200000" points="103.65,-417.55 109.8,-415.93 103.98,-413.37 103.65,-417.55"/>
</g>
<!-- client/src/components/layout/footer.js -->
<g id="node5" class="node">
<title>client/src/components/layout/footer.js</title>
<g id="a_node5"><a xlink:href="client/src/components/layout/footer.js" xlink:title="footer.js">
<path fill="#ffffcc" stroke="black" d="M357.81,-302.3C357.81,-302.3 316.21,-302.3 316.21,-302.3 313.11,-302.3 310.01,-299.2 310.01,-296.1 310.01,-296.1 310.01,-289.9 310.01,-289.9 310.01,-286.8 313.11,-283.7 316.21,-283.7 316.21,-283.7 357.81,-283.7 357.81,-283.7 360.91,-283.7 364.01,-286.8 364.01,-289.9 364.01,-289.9 364.01,-296.1 364.01,-296.1 364.01,-299.2 360.91,-302.3 357.81,-302.3"/>
<text text-anchor="middle" x="337.01" y="-290.3" font-family="Helvetica,sans-Serif" font-size="9.00">footer.js</text>
</a>
</g>
</g>
<!-- client/src/components/layout/navbar.js -->
<g id="node6" class="node">
<title>client/src/components/layout/navbar.js</title>
<g id="a_node6"><a xlink:href="client/src/components/layout/navbar.js" xlink:title="navbar.js">
<path fill="#ffffcc" stroke="black" d="M357.81,-333.3C357.81,-333.3 316.21,-333.3 316.21,-333.3 313.11,-333.3 310.01,-330.2 310.01,-327.1 310.01,-327.1 310.01,-320.9 310.01,-320.9 310.01,-317.8 313.11,-314.7 316.21,-314.7 316.21,-314.7 357.81,-314.7 357.81,-314.7 360.91,-314.7 364.01,-317.8 364.01,-320.9 364.01,-320.9 364.01,-327.1 364.01,-327.1 364.01,-330.2 360.91,-333.3 357.81,-333.3"/>
<text text-anchor="middle" x="337.01" y="-321.3" font-family="Helvetica,sans-Serif" font-size="9.00">navbar.js</text>
</a>
</g>
</g>
<!-- client/src/components/layout/page.js -->
<g id="node7" class="node">
<title>client/src/components/layout/page.js</title>
<g id="a_node7"><a xlink:href="client/src/components/layout/page.js" xlink:title="page.js">
<path fill="#ffffcc" stroke="black" d="M252.8,-329.3C252.8,-329.3 211.2,-329.3 211.2,-329.3 208.1,-329.3 205,-326.2 205,-323.1 205,-323.1 205,-316.9 205,-316.9 205,-313.8 208.1,-310.7 211.2,-310.7 211.2,-310.7 252.8,-310.7 252.8,-310.7 255.9,-310.7 259,-313.8 259,-316.9 259,-316.9 259,-323.1 259,-323.1 259,-326.2 255.9,-329.3 252.8,-329.3"/>
<text text-anchor="middle" x="232" y="-317.3" font-family="Helvetica,sans-Serif" font-size="9.00">page.js</text>
</a>
</g>
</g>
<!-- client/src/components/layout/page.js&#45;&gt;client/src/components/layout/footer.js -->
<g id="edge2" class="edge">
<title>client/src/components/layout/page.js&#45;&gt;client/src/components/layout/footer.js</title>
<path fill="none" stroke="#000000" stroke-width="2" stroke-opacity="0.200000" d="M259.26,-313.12C272.82,-309.56 289.49,-305.19 303.82,-301.44"/>
<polygon fill="#000000" fill-opacity="0.200000" stroke="#000000" stroke-width="2" stroke-opacity="0.200000" points="304.53,-303.42 309.8,-299.87 303.46,-299.36 304.53,-303.42"/>
</g>
<!-- client/src/components/layout/page.js&#45;&gt;client/src/components/layout/navbar.js -->
<g id="edge3" class="edge">
<title>client/src/components/layout/page.js&#45;&gt;client/src/components/layout/navbar.js</title>
<path fill="none" stroke="#000000" stroke-width="2" stroke-opacity="0.200000" d="M259.26,-321.02C272.7,-321.54 289.19,-322.18 303.43,-322.73"/>
<polygon fill="#000000" fill-opacity="0.200000" stroke="#000000" stroke-width="2" stroke-opacity="0.200000" points="303.72,-324.85 309.8,-322.98 303.89,-320.65 303.72,-324.85"/>
</g>
<!-- client/src/components/pages/four&#45;oh&#45;four.js -->
<g id="node8" class="node">
<title>client/src/components/pages/four&#45;oh&#45;four.js</title>
<g id="a_node8"><a xlink:href="client/src/components/pages/four-oh-four.js" xlink:title="four&#45;oh&#45;four.js">
<path fill="#ffffcc" stroke="black" d="M261.8,-241.3C261.8,-241.3 202.2,-241.3 202.2,-241.3 199.1,-241.3 196,-238.2 196,-235.1 196,-235.1 196,-228.9 196,-228.9 196,-225.8 199.1,-222.7 202.2,-222.7 202.2,-222.7 261.8,-222.7 261.8,-222.7 264.9,-222.7 268.01,-225.8 268.01,-228.9 268.01,-228.9 268.01,-235.1 268.01,-235.1 268.01,-238.2 264.9,-241.3 261.8,-241.3"/>
<text text-anchor="middle" x="232" y="-229.3" font-family="Helvetica,sans-Serif" font-size="9.00">four&#45;oh&#45;four.js</text>
</a>
</g>
</g>
<!-- client/src/components/pages/home/index.js -->
<g id="node9" class="node">
<title>client/src/components/pages/home/index.js</title>
<g id="a_node9"><a xlink:href="client/src/components/pages/home/index.js" xlink:title="index.js">
<path fill="#ffffcc" stroke="black" d="M252.8,-127.3C252.8,-127.3 211.2,-127.3 211.2,-127.3 208.1,-127.3 205,-124.2 205,-121.1 205,-121.1 205,-114.9 205,-114.9 205,-111.8 208.1,-108.7 211.2,-108.7 211.2,-108.7 252.8,-108.7 252.8,-108.7 255.9,-108.7 259,-111.8 259,-114.9 259,-114.9 259,-121.1 259,-121.1 259,-124.2 255.9,-127.3 252.8,-127.3"/>
<text text-anchor="middle" x="232" y="-115.3" font-family="Helvetica,sans-Serif" font-size="9.00">index.js</text>
</a>
</g>
</g>
<!-- client/src/components/shared/input&#45;greeting.js -->
<g id="node10" class="node">
<title>client/src/components/shared/input&#45;greeting.js</title>
<g id="a_node10"><a xlink:href="client/src/components/shared/input-greeting.js" xlink:title="input&#45;greeting.js">
<path fill="#ffffcc" stroke="black" d="M370.82,-214.3C370.82,-214.3 303.2,-214.3 303.2,-214.3 300.1,-214.3 297,-211.2 297,-208.1 297,-208.1 297,-201.9 297,-201.9 297,-198.8 300.1,-195.7 303.2,-195.7 303.2,-195.7 370.82,-195.7 370.82,-195.7 373.92,-195.7 377.02,-198.8 377.02,-201.9 377.02,-201.9 377.02,-208.1 377.02,-208.1 377.02,-211.2 373.92,-214.3 370.82,-214.3"/>
<text text-anchor="middle" x="337.01" y="-202.3" font-family="Helvetica,sans-Serif" font-size="9.00">input&#45;greeting.js</text>
</a>
</g>
</g>
<!-- client/src/components/pages/home/index.js&#45;&gt;client/src/components/shared/input&#45;greeting.js -->
<g id="edge4" class="edge">
<title>client/src/components/pages/home/index.js&#45;&gt;client/src/components/shared/input&#45;greeting.js</title>
<path fill="none" stroke="#000000" stroke-width="2" stroke-opacity="0.200000" d="M244.03,-127.31C262.28,-142.73 298.88,-173.64 319.99,-191.47"/>
<polygon fill="#000000" fill-opacity="0.200000" stroke="#000000" stroke-width="2" stroke-opacity="0.200000" points="318.82,-193.23 324.76,-195.49 321.53,-190.02 318.82,-193.23"/>
</g>
<!-- client/src/handlers/change&#45;greeting.js -->
<g id="node13" class="node">
<title>client/src/handlers/change&#45;greeting.js</title>
<g id="a_node13"><a xlink:href="client/src/handlers/change-greeting.js" xlink:title="change&#45;greeting.js">
<path fill="#ffffcc" stroke="black" d="M375.83,-421.3C375.83,-421.3 298.19,-421.3 298.19,-421.3 295.09,-421.3 291.99,-418.2 291.99,-415.1 291.99,-415.1 291.99,-408.9 291.99,-408.9 291.99,-405.8 295.09,-402.7 298.19,-402.7 298.19,-402.7 375.83,-402.7 375.83,-402.7 378.93,-402.7 382.03,-405.8 382.03,-408.9 382.03,-408.9 382.03,-415.1 382.03,-415.1 382.03,-418.2 378.93,-421.3 375.83,-421.3"/>
<text text-anchor="middle" x="337.01" y="-409.3" font-family="Helvetica,sans-Serif" font-size="9.00">change&#45;greeting.js</text>
</a>
</g>
</g>
<!-- client/src/components/shared/input&#45;greeting.js&#45;&gt;client/src/handlers/change&#45;greeting.js -->
<g id="edge7" class="edge">
<title>client/src/components/shared/input&#45;greeting.js&#45;&gt;client/src/handlers/change&#45;greeting.js</title>
<path fill="none" stroke="#000000" stroke-width="2" stroke-opacity="0.200000" d="M325.73,-214.6C311.58,-227.51 288.18,-251.99 280,-279 274.98,-295.59 274.98,-340.41 280,-357 285.46,-375.01 301.37,-389.48 315,-399.05"/>
<polygon fill="#000000" fill-opacity="0.200000" stroke="#000000" stroke-width="2" stroke-opacity="0.200000" points="314.13,-400.99 320.28,-402.6 316.47,-397.51 314.13,-400.99"/>
</g>
<!-- client/src/init/state.js -->
<g id="node14" class="node">
<title>client/src/init/state.js</title>
<g id="a_node14"><a xlink:href="client/src/init/state.js" xlink:title="state.js">
<path fill="#ffffcc" stroke="black" d="M79.8,-360.3C79.8,-360.3 38.2,-360.3 38.2,-360.3 35.1,-360.3 32,-357.2 32,-354.1 32,-354.1 32,-347.9 32,-347.9 32,-344.8 35.1,-341.7 38.2,-341.7 38.2,-341.7 79.8,-341.7 79.8,-341.7 82.9,-341.7 86,-344.8 86,-347.9 86,-347.9 86,-354.1 86,-354.1 86,-357.2 82.9,-360.3 79.8,-360.3"/>
<text text-anchor="middle" x="59" y="-348.3" font-family="Helvetica,sans-Serif" font-size="9.00">state.js</text>
</a>
</g>
</g>
<!-- client/src/components/shared/input&#45;greeting.js&#45;&gt;client/src/init/state.js -->
<g id="edge8" class="edge">
<title>client/src/components/shared/input&#45;greeting.js&#45;&gt;client/src/init/state.js</title>
<path fill="none" stroke="#000000" stroke-width="2" stroke-opacity="0.200000" d="M325.88,-214.46C313.56,-226.67 293.27,-249.17 284,-273 276.73,-291.71 290.82,-349.45 276,-363 249.99,-386.8 145.94,-369.23 92.31,-358.18"/>
<polygon fill="#000000" fill-opacity="0.200000" stroke="#000000" stroke-width="2" stroke-opacity="0.200000" points="92.65,-356.1 86.35,-356.93 91.79,-360.21 92.65,-356.1"/>
</g>
<!-- client/src/logic/reverse.js -->
<g id="node15" class="node">
<title>client/src/logic/reverse.js</title>
<g id="a_node15"><a xlink:href="client/src/logic/reverse.js" xlink:title="reverse.js">
<path fill="#ffffcc" stroke="black" d="M457.82,-330.3C457.82,-330.3 415.22,-330.3 415.22,-330.3 412.12,-330.3 409.02,-327.2 409.02,-324.1 409.02,-324.1 409.02,-317.9 409.02,-317.9 409.02,-314.8 412.12,-311.7 415.22,-311.7 415.22,-311.7 457.82,-311.7 457.82,-311.7 460.92,-311.7 464.02,-314.8 464.02,-317.9 464.02,-317.9 464.02,-324.1 464.02,-324.1 464.02,-327.2 460.92,-330.3 457.82,-330.3"/>
<text text-anchor="middle" x="436.52" y="-318.3" font-family="Helvetica,sans-Serif" font-size="9.00">reverse.js</text>
</a>
</g>
</g>
<!-- client/src/components/shared/input&#45;greeting.js&#45;&gt;client/src/logic/reverse.js -->
<g id="edge9" class="edge">
<title>client/src/components/shared/input&#45;greeting.js&#45;&gt;client/src/logic/reverse.js</title>
<path fill="none" stroke="#000000" stroke-width="2" stroke-opacity="0.200000" d="M345.99,-214.49C363.06,-234.8 403.21,-282.56 423.43,-306.62"/>
<polygon fill="#000000" fill-opacity="0.200000" stroke="#000000" stroke-width="2" stroke-opacity="0.200000" points="421.96,-308.13 427.43,-311.38 425.18,-305.43 421.96,-308.13"/>
</g>
<!-- client/src/components/pages/questions/index.js -->
<g id="node11" class="node">
<title>client/src/components/pages/questions/index.js</title>
<g id="a_node11"><a xlink:href="client/src/components/pages/questions/index.js" xlink:title="index.js">
<path fill="#ffffcc" stroke="black" d="M252.8,-66.3C252.8,-66.3 211.2,-66.3 211.2,-66.3 208.1,-66.3 205,-63.2 205,-60.1 205,-60.1 205,-53.9 205,-53.9 205,-50.8 208.1,-47.7 211.2,-47.7 211.2,-47.7 252.8,-47.7 252.8,-47.7 255.9,-47.7 259,-50.8 259,-53.9 259,-53.9 259,-60.1 259,-60.1 259,-63.2 255.9,-66.3 252.8,-66.3"/>
<text text-anchor="middle" x="232" y="-54.3" font-family="Helvetica,sans-Serif" font-size="9.00">index.js</text>
</a>
</g>
</g>
<!-- client/src/components/pages/questions/index.js&#45;&gt;client/src/components/shared/input&#45;greeting.js -->
<g id="edge5" class="edge">
<title>client/src/components/pages/questions/index.js&#45;&gt;client/src/components/shared/input&#45;greeting.js</title>
<path fill="none" stroke="#000000" stroke-width="2" stroke-opacity="0.200000" d="M244.88,-66.62C254.08,-74.44 266.77,-86.1 276,-98 299.4,-128.14 319.44,-168.5 329.36,-190.01"/>
<polygon fill="#000000" fill-opacity="0.200000" stroke="#000000" stroke-width="2" stroke-opacity="0.200000" points="327.49,-190.97 331.89,-195.56 331.31,-189.23 327.49,-190.97"/>
</g>
<!-- client/src/components/pages/quiz/index.js -->
<g id="node12" class="node">
<title>client/src/components/pages/quiz/index.js</title>
<g id="a_node12"><a xlink:href="client/src/components/pages/quiz/index.js" xlink:title="index.js">
<path fill="#ffffcc" stroke="black" d="M252.8,-188.3C252.8,-188.3 211.2,-188.3 211.2,-188.3 208.1,-188.3 205,-185.2 205,-182.1 205,-182.1 205,-175.9 205,-175.9 205,-172.8 208.1,-169.7 211.2,-169.7 211.2,-169.7 252.8,-169.7 252.8,-169.7 255.9,-169.7 259,-172.8 259,-175.9 259,-175.9 259,-182.1 259,-182.1 259,-185.2 255.9,-188.3 252.8,-188.3"/>
<text text-anchor="middle" x="232" y="-176.3" font-family="Helvetica,sans-Serif" font-size="9.00">index.js</text>
</a>
</g>
</g>
<!-- client/src/components/pages/quiz/index.js&#45;&gt;client/src/components/shared/input&#45;greeting.js -->
<g id="edge6" class="edge">
<title>client/src/components/pages/quiz/index.js&#45;&gt;client/src/components/shared/input&#45;greeting.js</title>
<path fill="none" stroke="#000000" stroke-width="2" stroke-opacity="0.200000" d="M259.26,-185.63C269.52,-188.22 281.54,-191.25 292.99,-194.14"/>
<polygon fill="#000000" fill-opacity="0.200000" stroke="#000000" stroke-width="2" stroke-opacity="0.200000" points="292.59,-196.2 298.92,-195.64 293.61,-192.13 292.59,-196.2"/>
</g>
<!-- client/src/handlers/change&#45;greeting.js&#45;&gt;client/src/init/state.js -->
<g id="edge10" class="edge">
<title>client/src/handlers/change&#45;greeting.js&#45;&gt;client/src/init/state.js</title>
<path fill="none" stroke="#000000" stroke-width="2" stroke-opacity="0.200000" d="M291.88,-408.84C244.07,-404.45 166.04,-394.49 102,-373 94.68,-370.54 87.09,-366.94 80.41,-363.35"/>
<polygon fill="#000000" fill-opacity="0.200000" stroke="#000000" stroke-width="2" stroke-opacity="0.200000" points="81.3,-361.44 75.04,-360.37 79.27,-365.12 81.3,-361.44"/>
</g>
<!-- client/src/handlers/change&#45;greeting.js&#45;&gt;client/src/logic/reverse.js -->
<g id="edge11" class="edge">
<title>client/src/handlers/change&#45;greeting.js&#45;&gt;client/src/logic/reverse.js</title>
<path fill="none" stroke="#000000" stroke-width="2" stroke-opacity="0.200000" d="M349.12,-402.4C360.34,-392.64 378.1,-377 393.02,-363 402.85,-353.78 413.65,-343.1 421.9,-334.81"/>
<polygon fill="#000000" fill-opacity="0.200000" stroke="#000000" stroke-width="2" stroke-opacity="0.200000" points="423.46,-336.22 426.2,-330.48 420.48,-333.26 423.46,-336.22"/>
</g>
<!-- client/src/init/state.js&#45;&gt;client/data/state.js -->
<g id="edge17" class="edge">
<title>client/src/init/state.js&#45;&gt;client/data/state.js</title>
<path fill="none" stroke="#000000" stroke-width="2" stroke-opacity="0.200000" d="M70.9,-360.61C78.79,-368.26 88.91,-379.7 94,-392 108.68,-427.47 82.11,-445.17 102,-478 104.06,-481.39 106.86,-484.36 109.98,-486.92"/>
<polygon fill="#000000" fill-opacity="0.200000" stroke="#000000" stroke-width="2" stroke-opacity="0.200000" points="108.99,-488.8 115.08,-490.62 111.45,-485.4 108.99,-488.8"/>
</g>
<!-- client/src/init/index.js -->
<g id="node16" class="node">
<title>client/src/init/index.js</title>
<g id="a_node16"><a xlink:href="client/src/init/index.js" xlink:title="index.js">
<path fill="#ffffcc" stroke="black" d="M79.8,-329.3C79.8,-329.3 38.2,-329.3 38.2,-329.3 35.1,-329.3 32,-326.2 32,-323.1 32,-323.1 32,-316.9 32,-316.9 32,-313.8 35.1,-310.7 38.2,-310.7 38.2,-310.7 79.8,-310.7 79.8,-310.7 82.9,-310.7 86,-313.8 86,-316.9 86,-316.9 86,-323.1 86,-323.1 86,-326.2 82.9,-329.3 79.8,-329.3"/>
<text text-anchor="middle" x="59" y="-317.3" font-family="Helvetica,sans-Serif" font-size="9.00">index.js</text>
</a>
</g>
</g>
<!-- client/src/init/router.js -->
<g id="node17" class="node">
<title>client/src/init/router.js</title>
<g id="a_node17"><a xlink:href="client/src/init/router.js" xlink:title="router.js">
<path fill="#ffffcc" stroke="black" d="M157.8,-329.3C157.8,-329.3 116.2,-329.3 116.2,-329.3 113.1,-329.3 110,-326.2 110,-323.1 110,-323.1 110,-316.9 110,-316.9 110,-313.8 113.1,-310.7 116.2,-310.7 116.2,-310.7 157.8,-310.7 157.8,-310.7 160.9,-310.7 164,-313.8 164,-316.9 164,-316.9 164,-323.1 164,-323.1 164,-326.2 160.9,-329.3 157.8,-329.3"/>
<text text-anchor="middle" x="137" y="-317.3" font-family="Helvetica,sans-Serif" font-size="9.00">router.js</text>
</a>
</g>
</g>
<!-- client/src/init/index.js&#45;&gt;client/src/init/router.js -->
<g id="edge12" class="edge">
<title>client/src/init/index.js&#45;&gt;client/src/init/router.js</title>
<path fill="none" stroke="#000000" stroke-width="2" stroke-opacity="0.200000" d="M86.15,-320C91.77,-320 97.76,-320 103.58,-320"/>
<polygon fill="#000000" fill-opacity="0.200000" stroke="#000000" stroke-width="2" stroke-opacity="0.200000" points="103.8,-322.1 109.8,-320 103.8,-317.9 103.8,-322.1"/>
</g>
<!-- client/src/init/router.js&#45;&gt;client/lib/navigo/index.js -->
<g id="edge13" class="edge">
<title>client/src/init/router.js&#45;&gt;client/lib/navigo/index.js</title>
<path fill="none" stroke="#000000" stroke-width="2" stroke-opacity="0.200000" d="M164.17,-326.96C167.09,-328.57 169.8,-330.56 172,-333 181.23,-343.25 175.93,-349.81 180,-363 194.79,-410.92 215.35,-466.63 225.24,-492.86"/>
<polygon fill="#000000" fill-opacity="0.200000" stroke="#000000" stroke-width="2" stroke-opacity="0.200000" points="223.32,-493.71 227.4,-498.58 227.25,-492.23 223.32,-493.71"/>
</g>
<!-- client/src/init/router.js&#45;&gt;client/src/components/layout/page.js -->
<g id="edge14" class="edge">
<title>client/src/init/router.js&#45;&gt;client/src/components/layout/page.js</title>
<path fill="none" stroke="#000000" stroke-width="2" stroke-opacity="0.200000" d="M164.4,-320C175.1,-320 187.54,-320 198.77,-320"/>
<polygon fill="#000000" fill-opacity="0.200000" stroke="#000000" stroke-width="2" stroke-opacity="0.200000" points="198.86,-322.1 204.86,-320 198.86,-317.9 198.86,-322.1"/>
</g>
<!-- client/src/init/router.js&#45;&gt;client/src/components/pages/four&#45;oh&#45;four.js -->
<g id="edge15" class="edge">
<title>client/src/init/router.js&#45;&gt;client/src/components/pages/four&#45;oh&#45;four.js</title>
<path fill="none" stroke="#000000" stroke-width="2" stroke-opacity="0.200000" d="M164.24,-313.1C167.15,-311.48 169.84,-309.47 172,-307 182.22,-295.31 171.72,-286.13 180,-273 187.22,-261.54 198.78,-251.86 209.07,-244.79"/>
<polygon fill="#000000" fill-opacity="0.200000" stroke="#000000" stroke-width="2" stroke-opacity="0.200000" points="210.45,-246.4 214.3,-241.34 208.14,-242.89 210.45,-246.4"/>
</g>
<!-- client/src/routes.js -->
<g id="node18" class="node">
<title>client/src/routes.js</title>
<g id="a_node18"><a xlink:href="client/src/routes.js" xlink:title="routes.js">
<path fill="#ffffcc" stroke="black" d="M157.8,-157.3C157.8,-157.3 116.2,-157.3 116.2,-157.3 113.1,-157.3 110,-154.2 110,-151.1 110,-151.1 110,-144.9 110,-144.9 110,-141.8 113.1,-138.7 116.2,-138.7 116.2,-138.7 157.8,-138.7 157.8,-138.7 160.9,-138.7 164,-141.8 164,-144.9 164,-144.9 164,-151.1 164,-151.1 164,-154.2 160.9,-157.3 157.8,-157.3"/>
<text text-anchor="middle" x="137" y="-145.3" font-family="Helvetica,sans-Serif" font-size="9.00">routes.js</text>
</a>
</g>
</g>
<!-- client/src/init/router.js&#45;&gt;client/src/routes.js -->
<g id="edge16" class="edge">
<title>client/src/init/router.js&#45;&gt;client/src/routes.js</title>
<path fill="none" stroke="#000000" stroke-width="2" stroke-opacity="0.200000" d="M137,-310.47C137,-261.54 137,-212.61 137,-163.68"/>
<polygon fill="#000000" fill-opacity="0.200000" stroke="#000000" stroke-width="2" stroke-opacity="0.200000" points="139.1,-163.41 137,-157.41 134.9,-163.41 139.1,-163.41"/>
</g>
<!-- client/src/routes.js&#45;&gt;client/src/components/pages/home/index.js -->
<g id="edge18" class="edge">
<title>client/src/routes.js&#45;&gt;client/src/components/pages/home/index.js</title>
<path fill="none" stroke="#000000" stroke-width="2" stroke-opacity="0.200000" d="M164.4,-139.48C175.19,-136 187.78,-131.94 199.08,-128.3"/>
<polygon fill="#000000" fill-opacity="0.200000" stroke="#000000" stroke-width="2" stroke-opacity="0.200000" points="199.79,-130.27 204.86,-126.43 198.5,-126.28 199.79,-130.27"/>
</g>
<!-- client/src/routes.js&#45;&gt;client/src/components/pages/questions/index.js -->
<g id="edge19" class="edge">
<title>client/src/routes.js&#45;&gt;client/src/components/pages/questions/index.js</title>
<path fill="none" stroke="#000000" stroke-width="2" stroke-opacity="0.200000" d="M144.94,-138.69C152.88,-128.28 166.55,-111.16 180,-98 190.23,-87.99 202.75,-77.89 212.83,-70.23"/>
<polygon fill="#000000" fill-opacity="0.200000" stroke="#000000" stroke-width="2" stroke-opacity="0.200000" points="214.31,-71.74 217.85,-66.46 211.79,-68.38 214.31,-71.74"/>
</g>
<!-- client/src/routes.js&#45;&gt;client/src/components/pages/quiz/index.js -->
<g id="edge20" class="edge">
<title>client/src/routes.js&#45;&gt;client/src/components/pages/quiz/index.js</title>
<path fill="none" stroke="#000000" stroke-width="2" stroke-opacity="0.200000" d="M164.4,-156.8C175.19,-160.4 187.78,-164.59 199.08,-168.36"/>
<polygon fill="#000000" fill-opacity="0.200000" stroke="#000000" stroke-width="2" stroke-opacity="0.200000" points="198.5,-170.38 204.86,-170.28 199.83,-166.4 198.5,-170.38"/>
</g>
</g>
</svg>
